<svg width="124" height="105" viewBox="0 0 124 105" fill="none" xmlns="http://www.w3.org/2000/svg">
<g opacity="0.35">
<g opacity="0.41">
<path d="M115.58 62.0078C116.621 66.6033 116.445 70.8124 115.056 75.3133C113.318 80.9457 109.4 86.1841 103.803 89.4097C101.838 90.5417 99.7292 91.393 97.5324 91.9983C97.1741 92.5692 96.7862 93.122 96.3741 93.6565H115.121C119.889 87.9813 122.621 80.7054 123.051 73.3014C123.167 71.2989 123.115 69.2867 122.89 67.2946C122.015 59.5742 118.593 52.2183 113.455 46.3828C113.379 46.7928 113.314 47.2042 113.267 47.6173C112.707 52.5334 114.511 57.2896 115.58 62.0078Z" fill="#53D0F7"/>
</g>
<g opacity="0.41">
<path d="M57.5369 92.513C56.4373 90.993 55.5767 89.056 54.4101 87.5043C51.9118 88.0124 49.4446 88.7536 46.9494 89.393C41.843 90.7013 36.5827 91.6744 31.313 91.7467C25.4581 91.8271 19.4877 90.6984 14.3951 87.6899C10.5117 85.396 7.09635 81.8906 5.24957 77.7057C5.76489 83.4777 7.85789 89.1059 11.3848 93.6559H58.4232C58.1164 93.2854 57.8203 92.9045 57.5369 92.513Z" fill="#53D0F7"/>
</g>
<g opacity="0.41">
<path d="M64.9541 13.3268C66.3766 13.2785 67.9064 13.1932 69.5756 13.0668C77.3642 12.4772 85.0794 14.2519 92.5602 16.7024C93.2819 16.9388 93.9998 17.1933 94.7124 17.4647C91.4908 13.9209 87.383 11.1642 82.8624 9.59766C73.9156 6.49768 63.066 7.73008 55.1854 12.6118C58.4235 12.6199 61.6823 12.8643 64.9541 13.3268Z" fill="#53D0F7"/>
</g>
<g opacity="0.35">
<path d="M14.3953 87.6905C19.488 90.6987 25.4583 91.8274 31.3133 91.7473C36.583 91.675 41.8433 90.7018 46.9497 89.3935C49.4449 88.7542 51.912 88.0129 54.4104 87.5049C53.3823 86.1375 52.1167 85.0692 50.2408 84.849C42.9829 83.9967 35.3659 87.1219 28.1473 87.6832C23.297 88.0605 18.1396 87.4082 14.2035 84.434C11.6503 82.5048 9.78034 79.715 8.50062 76.7133C5.84498 70.485 5.73994 63.3225 7.9268 56.9307C9.40672 52.6051 13.0371 49.3049 14.2913 44.8992C15.3389 41.2192 14.0857 37.3899 14.4161 33.674C14.4835 32.9161 14.6166 32.1631 14.8488 31.4169C16.0786 27.462 22.0495 21.7267 25.7165 19.8017C34.5053 15.1882 43.6893 12.9187 53.0654 12.6431C47.7307 11.7502 42.6776 10.1216 33.7331 8.20852C23.1087 5.93612 11.2244 14.0367 5.00726 23.4206C4.37312 24.3777 3.81646 25.382 3.33728 26.4218C1.19384 31.0753 0.608316 36.4401 1.63688 41.4555C2.84588 47.3518 6.51682 51.8818 5.24308 58.1719C4.46724 62.0033 4.27302 65.5526 3.87964 69.3436C3.57206 72.3066 4.11572 75.1349 5.25062 77.7068C7.09662 81.8912 10.5117 85.3963 14.3953 87.6905Z" fill="#53D0F7"/>
</g>
<g opacity="0.47">
<path d="M69.5757 13.0669C67.9065 13.1933 66.3769 13.2786 64.9542 13.3269C69.7863 14.0097 74.6459 15.168 79.5069 16.7665C79.5077 16.7667 97.671 22.7402 97.671 22.7402C106.208 25.5477 111.866 33.7294 111.334 42.7002C111.331 42.7592 111.327 42.8182 111.323 42.877C110.983 48.077 109.249 53.174 106.385 57.4482C103.792 61.3183 100.213 65.6467 99.3168 70.3967C98.6028 74.1815 100.145 78.0074 100.333 81.8593C100.511 85.5214 99.4166 88.9966 97.5329 91.998C99.7297 91.3927 101.839 90.5417 103.803 89.4094C109.401 86.1839 113.319 80.9451 115.056 75.313C116.445 70.8119 116.621 66.6028 115.581 62.0075C114.512 57.2896 112.708 52.5334 113.268 47.6173C113.315 47.2042 113.38 46.7928 113.456 46.3828C114.01 43.3923 115.191 40.4709 114.938 37.4492C114.748 35.1664 113.742 33.0243 112.513 31.0912C108.432 24.6733 101.849 20.1844 94.713 17.4648C94.0003 17.1934 93.2825 16.9389 92.5607 16.7025C85.0795 14.252 77.3642 12.4773 69.5757 13.0669Z" fill="#53D0F7"/>
</g>
<g opacity="0.85">
<path d="M14.8482 31.4164C14.6163 32.1626 14.4829 32.9158 14.4156 33.6734C14.0854 37.3894 15.3386 41.2186 14.2908 44.8987C13.0366 49.3044 9.40619 52.6046 7.92627 56.9302C5.73941 63.322 5.84445 70.4842 8.50009 76.7128C9.78007 79.7145 11.6497 82.5043 14.2029 84.4335C18.1391 87.4076 23.2964 88.06 28.1467 87.6827C35.3654 87.1214 42.9823 83.9962 50.2402 84.8485C52.1164 85.0687 53.3818 86.137 54.4098 87.5044C55.5765 89.056 56.4371 90.993 57.5366 92.513C57.8197 92.9046 58.1161 93.2855 58.4232 93.6562H96.3738C96.7859 93.1217 97.1739 92.5689 97.5321 91.9979C99.4156 88.9965 100.51 85.5213 100.332 81.8592C100.144 78.0073 98.6023 74.1814 99.316 70.3966C100.212 65.6467 103.791 61.3182 106.384 57.4481C109.249 53.174 110.982 48.0769 111.323 42.8769C111.326 42.8179 111.33 42.7591 111.333 42.7001C111.865 33.7293 106.207 25.5477 97.6702 22.7402C97.6702 22.7402 79.5069 16.7667 79.5061 16.7664C74.6451 15.1677 69.7855 14.0096 64.9534 13.3269C61.6815 12.8646 58.4227 12.6202 55.1846 12.6119C54.4767 12.6101 53.77 12.622 53.0641 12.6426C43.688 12.9179 34.504 15.1874 25.7152 19.8011C22.0489 21.7262 16.078 27.4615 14.8482 31.4164Z" fill="#53D0F7"/>
</g>
</g>
<path opacity="0.58" d="M51.7074 8.07669C52.3536 8.07669 52.8774 7.55287 52.8774 6.90669C52.8774 6.26052 52.3536 5.73669 51.7074 5.73669C51.0612 5.73669 50.5374 6.26052 50.5374 6.90669C50.5374 7.55287 51.0612 8.07669 51.7074 8.07669Z" fill="#3D85FD"/>
<path opacity="0.58" d="M23.3445 104.191C23.9907 104.191 24.5145 103.668 24.5145 103.021C24.5145 102.375 23.9907 101.851 23.3445 101.851C22.6984 101.851 22.1745 102.375 22.1745 103.021C22.1745 103.668 22.6984 104.191 23.3445 104.191Z" fill="#2F4770"/>
<path opacity="0.58" d="M95.0325 104.171C95.5351 104.171 95.9425 103.764 95.9425 103.261C95.9425 102.759 95.5351 102.351 95.0325 102.351C94.5299 102.351 94.1225 102.759 94.1225 103.261C94.1225 103.764 94.5299 104.171 95.0325 104.171Z" fill="#FFB44F"/>
<path opacity="0.58" d="M30.384 14.3619C30.5994 14.3619 30.774 14.1873 30.774 13.9719C30.774 13.7565 30.5994 13.5819 30.384 13.5819C30.1686 13.5819 29.994 13.7565 29.994 13.9719C29.994 14.1873 30.1686 14.3619 30.384 14.3619Z" fill="#3D85FD"/>
<path opacity="0.58" d="M101.416 15.1303C101.254 15.8892 100.507 16.3728 99.7484 16.2108C98.9895 16.0489 98.5059 15.3021 98.6678 14.5435C98.8298 13.7845 99.5765 13.3009 100.335 13.4629C101.094 13.6249 101.578 14.3713 101.416 15.1303Z" fill="#FFB44F"/>
<path opacity="0.58" d="M10.4719 11.8007C10.1555 13.2824 8.6977 14.2273 7.2157 13.9108C5.73396 13.5944 4.78912 12.1366 5.10554 10.6546C5.42196 9.17287 6.87978 8.22803 8.36152 8.54445C9.84378 8.86113 10.7884 10.3189 10.4719 11.8007Z" fill="#FFB44F"/>
<path opacity="0.58" d="M24.0094 2.88134C23.9459 3.17904 23.6532 3.36858 23.3555 3.30514C23.0578 3.2417 22.8682 2.94894 22.9317 2.65124C22.9951 2.35354 23.2881 2.164 23.5856 2.22744C23.8833 2.29088 24.0731 2.58364 24.0094 2.88134Z" fill="#FFB44F"/>
<path opacity="0.58" d="M91.5282 1.39099C91.4648 1.68869 91.1718 1.87823 90.8743 1.81479C90.5766 1.75135 90.3871 1.45833 90.4505 1.16089C90.5142 0.863188 90.807 0.673647 91.1044 0.737087C91.4019 0.800787 91.5917 1.09355 91.5282 1.39099Z" fill="#FFB44F"/>
<path opacity="0.58" d="M111.826 0.566328C111.772 0.819308 111.524 0.980508 111.271 0.926428C111.018 0.872348 110.856 0.623528 110.91 0.370548C110.965 0.117568 111.213 -0.043632 111.466 0.010448C111.719 0.064528 111.88 0.313348 111.826 0.566328Z" fill="#2F4770"/>
<path opacity="0.35" d="M116.201 15.2875C116.446 14.2503 115.803 13.2109 114.766 12.966C113.729 12.7211 112.69 13.3634 112.445 14.4006C112.2 15.4378 112.842 16.4771 113.879 16.722C114.916 16.9669 115.956 16.3247 116.201 15.2875Z" fill="#53D0F7"/>
<path opacity="0.47" d="M119.273 47.6017C120.236 47.6017 121.017 46.8209 121.017 45.8578C121.017 44.8947 120.236 44.114 119.273 44.114C118.31 44.114 117.529 44.8947 117.529 45.8578C117.529 46.8209 118.31 47.6017 119.273 47.6017Z" fill="#BFDDE8"/>
<path opacity="0.47" d="M3.74158 56.0833C3.74158 56.8711 3.10302 57.5097 2.31522 57.5097C1.52742 57.5097 0.888855 56.8711 0.888855 56.0833C0.888855 55.2955 1.52742 54.657 2.31522 54.657C3.10302 54.657 3.74158 55.2955 3.74158 56.0833Z" fill="#BFDDE8"/>
<path d="M119.52 94.0083H2.3009C2.13346 94.0083 1.99774 93.8726 1.99774 93.7051C1.99774 93.5377 2.13346 93.402 2.3009 93.402H119.52C119.688 93.402 119.824 93.5377 119.824 93.7051C119.824 93.8726 119.688 94.0083 119.52 94.0083Z" fill="#233863" stroke="#233863" stroke-width="3" stroke-miterlimit="10"/>
<path d="M87.8236 47.6494V50.8054C86.5454 51.0679 85.3437 51.4976 84.2527 52.0667L81.6345 49.8347C81.1651 49.4346 80.4044 49.4346 79.9351 49.8347L77.485 51.9233C77.0157 52.3234 77.0157 52.9719 77.485 53.372L80.1033 55.604C79.4357 56.534 78.9317 57.5584 78.6237 58.6481H74.9213C74.2576 58.6481 73.7196 59.1067 73.7196 59.6725V62.6261C73.7196 63.1919 74.2576 63.6505 74.9213 63.6505H78.6234C78.9314 64.7401 79.4355 65.7645 80.103 66.6946L77.4848 68.9265C77.0154 69.3266 77.0154 69.9751 77.4848 70.3752L79.9349 72.4638C80.4042 72.8639 81.1649 72.8639 81.6342 72.4638L84.2525 70.2319C85.3434 70.8009 86.5451 71.2306 87.8233 71.4932V74.6492C87.8233 75.2149 88.3613 75.6736 89.025 75.6736H92.4898C93.1534 75.6736 93.6915 75.2149 93.6915 74.6492V71.4932C94.9697 71.2306 96.1714 70.8009 97.2623 70.2319L99.8806 72.4638C100.35 72.8639 101.111 72.8639 101.58 72.4638L104.03 70.3752C104.499 69.9751 104.499 69.3266 104.03 68.9265L101.412 66.6946C102.079 65.7645 102.583 64.7401 102.891 63.6505H106.593C107.257 63.6505 107.795 63.1919 107.795 62.6261V59.6725C107.795 59.1067 107.257 58.6481 106.593 58.6481H102.891C102.583 57.5584 102.079 56.534 101.412 55.604L104.03 53.372C104.499 52.9719 104.499 52.3234 104.03 51.9233L101.58 49.8347C101.111 49.4346 100.35 49.4346 99.8806 49.8347L97.2623 52.0667C96.1714 51.4976 94.9697 51.0679 93.6915 50.8054V47.6494C93.6915 47.0837 93.1534 46.625 92.4898 46.625H89.025C88.3613 46.625 87.8236 47.0837 87.8236 47.6494ZM99.9918 61.1495C99.9918 65.497 95.8575 69.0214 90.7576 69.0214C85.6578 69.0214 81.5235 65.497 81.5235 61.1495C81.5235 56.802 85.6578 53.2776 90.7576 53.2776C95.8575 53.2776 99.9918 56.802 99.9918 61.1495Z" fill="#53D0F7"/>
<path d="M92.4898 75.9861H89.0251C88.1602 75.9861 87.4567 75.3864 87.4567 74.6491V71.7365C86.3528 71.4871 85.2968 71.1139 84.31 70.6248L81.8934 72.6847C81.2816 73.2063 80.2869 73.2058 79.6756 72.6847L77.2257 70.5963C76.6141 70.0751 76.6141 69.2268 77.2257 68.7056L79.6421 66.6455C79.0679 65.8035 78.6303 64.9035 78.3382 63.963H74.9213C74.0565 63.963 73.353 63.3633 73.353 62.626V59.6724C73.353 58.9352 74.0565 58.3354 74.9213 58.3354H78.338C78.6303 57.395 79.0679 56.4948 79.6418 55.6529L77.2255 53.5931C76.9292 53.3405 76.7662 53.0048 76.7662 52.6476C76.7662 52.2905 76.9292 51.9548 77.2255 51.7022L79.6753 49.6138C80.2867 49.0926 81.2813 49.0924 81.8932 49.6138L84.3097 51.6737C85.297 51.1844 86.3531 50.8114 87.4565 50.5619V47.6494C87.4565 46.9121 88.16 46.3124 89.0248 46.3124H92.4896C93.3544 46.3124 94.0579 46.9121 94.0579 47.6494V50.5619C95.1611 50.8112 96.2171 51.1842 97.2049 51.6737L99.6213 49.6138C100.233 49.0924 101.228 49.0926 101.839 49.6138L104.289 51.7022C104.585 51.9546 104.748 52.2905 104.748 52.6476C104.748 53.0048 104.585 53.3405 104.289 53.5931L101.873 55.6529C102.447 56.4948 102.884 57.395 103.177 58.3354H106.594C107.458 58.3354 108.162 58.9352 108.162 59.6724V62.626C108.162 63.3633 107.458 63.963 106.594 63.963H103.177C102.885 64.9035 102.447 65.8035 101.873 66.6455L104.289 68.7056C104.901 69.2268 104.901 70.0751 104.289 70.5963L101.839 72.6847C101.228 73.2058 100.233 73.2063 99.6213 72.6847L97.2049 70.6248C96.2176 71.1141 95.1616 71.4871 94.0579 71.7365V74.6491C94.0582 75.3866 93.3549 75.9861 92.4898 75.9861ZM84.253 69.9192C84.3188 69.9192 84.385 69.9342 84.4442 69.9653C85.5185 70.5256 86.6843 70.9376 87.9094 71.1895C88.0742 71.2233 88.19 71.3489 88.19 71.4934V74.6493C88.19 75.0419 88.5645 75.3612 89.0251 75.3612H92.4898C92.9504 75.3612 93.3249 75.0419 93.3249 74.6493V71.4934C93.3249 71.3489 93.441 71.2233 93.6055 71.1895C94.8304 70.9378 95.9961 70.5258 97.071 69.9653C97.2162 69.8896 97.4022 69.909 97.5217 70.0109L100.14 72.2429C100.465 72.5203 100.995 72.5205 101.321 72.2429L103.771 70.1545C104.096 69.8769 104.096 69.4254 103.771 69.1478L101.152 66.9158C101.033 66.8137 101.01 66.6549 101.099 66.5318C101.757 65.6149 102.24 64.6207 102.535 63.5773C102.574 63.4369 102.722 63.3381 102.891 63.3381H106.594C107.054 63.3381 107.429 63.0188 107.429 62.6263V59.6724C107.429 59.2798 107.054 58.9606 106.594 58.9606H102.891C102.722 58.9606 102.574 58.8616 102.535 58.7214C102.24 57.6778 101.756 56.684 101.099 55.7673C101.01 55.644 101.032 55.4854 101.152 55.3831L103.771 53.1511C103.929 53.0167 104.015 52.8379 104.015 52.6476C104.015 52.4576 103.929 52.2788 103.771 52.1444L101.321 50.0558C101.006 49.7872 100.456 49.787 100.14 50.0558L97.5217 52.2878C97.4024 52.3899 97.2162 52.4092 97.071 52.3334C95.9957 51.7724 94.8297 51.3605 93.6055 51.1094C93.4407 51.0754 93.3249 50.9497 93.3249 50.8053V47.6494C93.3249 47.2568 92.9504 46.9375 92.4898 46.9375H89.0251C88.5645 46.9375 88.19 47.2568 88.19 47.6494V50.8053C88.19 50.9497 88.0739 51.0754 87.9094 51.1094C86.685 51.3607 85.5192 51.7726 84.4442 52.3334C84.2995 52.4086 84.113 52.3897 83.9934 52.2878L81.3749 50.0558C81.0594 49.787 80.5096 49.7872 80.194 50.0558L77.7442 52.1444C77.5863 52.2788 77.4998 52.4576 77.4998 52.6476C77.4998 52.8379 77.5863 53.0167 77.7442 53.1511L80.3624 55.3831C80.4822 55.4852 80.5045 55.644 80.416 55.7673C79.7584 56.6838 79.2752 57.6778 78.9801 58.7214C78.9405 58.8618 78.7931 58.9606 78.6237 58.9606H74.9213C74.4608 58.9606 74.0863 59.2798 74.0863 59.6724V62.626C74.0863 63.0186 74.4608 63.3379 74.9213 63.3379H78.6235C78.7929 63.3379 78.9403 63.4369 78.9799 63.5771C79.2747 64.6205 79.7579 65.6145 80.4157 66.5316C80.5042 66.6547 80.4822 66.8135 80.3622 66.9156L77.744 69.1476C77.4184 69.4252 77.4184 69.8767 77.744 70.1543L80.1938 72.2427C80.5196 72.5203 81.0493 72.5203 81.3747 72.2427L83.9932 70.0107C84.0643 69.9507 84.1582 69.9192 84.253 69.9192ZM90.7577 69.3339C85.4638 69.3339 81.1569 65.6624 81.1569 61.1494C81.1569 56.6367 85.4638 52.9652 90.7577 52.9652C96.0516 52.9652 100.359 56.6367 100.359 61.1494C100.359 65.6622 96.0516 69.3339 90.7577 69.3339ZM90.7577 53.5901C85.8681 53.5901 81.8902 56.9812 81.8902 61.1492C81.8902 65.3175 85.8681 68.7085 90.7577 68.7085C95.6473 68.7085 99.6252 65.3175 99.6252 61.1492C99.6252 56.9812 95.6471 53.5901 90.7577 53.5901Z" fill="#233863"/>
<path opacity="0.46" d="M80.229 58.2605L56.8779 49.3936C56.094 49.0959 55.7415 48.3128 56.0906 47.6445L66.3773 27.9575C66.7266 27.2892 67.6452 26.9887 68.4291 27.2865L91.7802 36.1534C92.5641 36.4512 92.9166 37.2343 92.5676 37.9026L82.2808 57.5895C81.9315 58.2578 81.0129 58.5583 80.229 58.2605Z" fill="#233863"/>
<path d="M79.272 56.3714L57.5431 48.1205C56.7592 47.8227 56.4067 47.0396 56.7558 46.3714L66.4345 27.848C66.7838 27.1797 67.7025 26.8792 68.4864 27.177L90.2153 35.4279C90.9993 35.7257 91.3517 36.5088 91.0027 37.1771L81.3239 55.7004C80.9746 56.3687 80.056 56.6692 79.272 56.3714Z" fill="white"/>
<path d="M79.9012 56.7986C79.6406 56.7986 79.3759 56.753 79.1229 56.6569L57.394 48.406C56.9254 48.2281 56.5658 47.9053 56.382 47.4968C56.1984 47.0886 56.2121 46.6437 56.4208 46.2441L66.0996 27.7207C66.3081 27.3212 66.687 27.0149 67.1659 26.8582C67.6455 26.7017 68.1671 26.7134 68.6355 26.8913L90.3644 35.1422C90.833 35.3202 91.1923 35.643 91.3761 36.0512C91.56 36.4596 91.5463 36.9045 91.3375 37.304L81.6587 55.8274C81.3405 56.4365 80.637 56.7986 79.9012 56.7986ZM79.4213 56.086C80.019 56.3133 80.7225 56.0826 80.989 55.5731L90.6678 37.0498C90.7968 36.8028 90.8054 36.5278 90.6917 36.2754C90.578 36.0231 90.3561 35.8235 90.0662 35.7134L68.3372 27.4625C68.0473 27.3523 67.7249 27.3452 67.4289 27.4421C67.1329 27.539 66.8987 27.7282 66.7696 27.9753L57.0908 46.4987C56.9618 46.7458 56.9532 47.0207 57.0669 47.273C57.1803 47.5256 57.4025 47.725 57.6924 47.8351L79.4213 56.086Z" fill="#233863"/>
<path d="M87.0506 37.4683L68.8273 30.5486L60.7101 46.0835L78.9334 53.0032L87.0506 37.4683Z" fill="#FFB44F"/>
<path d="M78.932 53.3139C78.8821 53.3139 78.8315 53.3054 78.7831 53.2868L60.5602 46.3673C60.4715 46.3335 60.4018 46.271 60.3671 46.1937C60.3322 46.1164 60.3349 46.0303 60.3745 45.9547L68.4915 30.4201C68.5741 30.2624 68.7909 30.1918 68.9755 30.2618L87.1983 37.1813C87.2871 37.2151 87.3565 37.2774 87.3915 37.3549C87.4264 37.4322 87.4237 37.5183 87.3841 37.5941L79.2671 53.1285C79.2062 53.2449 79.0723 53.3139 78.932 53.3139ZM61.1934 45.9234L78.7464 52.5885L86.565 37.6252L69.0119 30.9601L61.1934 45.9234Z" fill="#233863"/>
<path d="M62.3999 42.9038L66.4496 40.1671C67.531 39.4366 69.1351 39.8385 69.5802 40.9519L70.436 43.0916C70.7728 43.9339 71.9582 44.2712 72.8213 43.7707L77.302 41.1715C79.0475 40.159 81.4262 41.1217 81.6091 42.9147L82.0378 47.1144L78.9136 53.0938L60.6907 46.1742L62.3999 42.9038Z" fill="white"/>
<path d="M78.9137 53.4064C78.8638 53.4064 78.8132 53.3979 78.7648 53.3793L60.5419 46.4598C60.4532 46.426 60.3835 46.3637 60.3488 46.2862C60.3139 46.2089 60.3166 46.1228 60.3562 46.0472L62.0651 42.7768C62.0893 42.7308 62.1259 42.6903 62.1721 42.6591L66.2218 39.9226C66.832 39.5102 67.61 39.3814 68.3566 39.5684C69.1036 39.7555 69.6758 40.2231 69.9271 40.8512L70.7832 42.9906C70.9064 43.299 71.1851 43.5351 71.5473 43.6383C71.9098 43.7414 72.2987 43.6956 72.615 43.5122L77.0957 40.913C78.0236 40.3744 79.184 40.2979 80.1985 40.7086C81.2129 41.1191 81.8768 41.9337 81.9743 42.8875L82.4031 47.0872C82.4085 47.1399 82.398 47.1931 82.3728 47.2414L79.249 53.221C79.1882 53.3375 79.0542 53.4064 78.9137 53.4064ZM61.1753 46.0161L78.7284 52.6813L81.6649 47.0612L81.2444 42.9419C81.1696 42.2117 80.6614 41.5878 79.8843 41.2735C79.1077 40.9591 78.2194 41.0179 77.5086 41.4303L73.0279 44.0294C72.5214 44.3234 71.8971 44.397 71.3153 44.2315C70.734 44.0661 70.2872 43.6875 70.0892 43.1928L69.2332 41.0533C69.0598 40.6201 68.6653 40.2975 68.1498 40.1683C67.6355 40.0391 67.0982 40.1283 66.6775 40.4125L62.6984 43.1015L61.1753 46.0161Z" fill="#233863"/>
<path d="M75.6671 39.535C75.1673 40.4915 73.8524 40.9216 72.7304 40.4954C71.6084 40.0693 71.1038 38.9484 71.6037 37.9919C72.1036 37.0355 73.4185 36.6054 74.5405 37.0315C75.6625 37.4576 76.167 38.5785 75.6671 39.535Z" fill="white"/>
<path d="M73.6346 40.9735C73.276 40.9735 72.9183 40.9093 72.5813 40.7812C71.9491 40.5411 71.4644 40.1056 71.2165 39.5548C70.9684 39.0039 70.987 38.4039 71.2688 37.8651C71.5502 37.3262 72.0611 36.913 72.7074 36.7017C73.3532 36.4906 74.057 36.506 74.6896 36.7463C75.3217 36.9863 75.8065 37.4218 76.0543 37.9726C76.3024 38.5236 76.2839 39.1235 76.002 39.6626C75.7204 40.2015 75.2095 40.6147 74.5632 40.826C74.2621 40.9243 73.948 40.9735 73.6346 40.9735ZM73.636 37.1793C73.4114 37.1793 73.1863 37.2145 72.9699 37.2851C72.5067 37.4366 72.1405 37.733 71.9386 38.1193C71.7367 38.5056 71.7233 38.9359 71.9012 39.3308C72.0789 39.7257 72.4263 40.0381 72.8797 40.2102C73.3332 40.3821 73.8377 40.3936 74.3007 40.2421C74.7642 40.0906 75.1303 39.7943 75.3322 39.4079C75.5341 39.0216 75.5476 38.5913 75.3696 38.1964C75.1919 37.8015 74.8446 37.4894 74.3911 37.3172C74.1494 37.2253 73.8929 37.1793 73.636 37.1793Z" fill="#233863"/>
<path d="M35.0324 74.8513H31.5677C30.7028 74.8513 29.9993 74.2515 29.9993 73.5143V70.6015C28.8961 70.3525 27.8401 69.9793 26.8523 69.4898L24.436 71.5499C23.8246 72.0706 22.83 72.071 22.2182 71.5499L19.7683 69.4612C19.1567 68.9401 19.1567 68.0917 19.7683 67.5706L22.1847 65.5107C21.611 64.6695 21.1732 63.769 20.8806 62.8282H17.464C16.5991 62.8282 15.8956 62.2285 15.8956 61.4912V58.5374C15.8956 57.8001 16.5991 57.2004 17.464 57.2004H20.8806C21.1732 56.2593 21.611 55.3591 22.1847 54.5179L19.7683 52.458C19.4721 52.2055 19.309 51.8698 19.309 51.5126C19.309 51.1554 19.4721 50.8197 19.7683 50.5672L22.2182 48.4787C22.8295 47.9576 23.8242 47.9572 24.436 48.4787L26.8523 50.5386C27.8401 50.0493 28.8961 49.6761 29.9993 49.4269V46.5141C29.9993 45.7768 30.7028 45.1771 31.5677 45.1771H35.0324C35.8973 45.1771 36.6008 45.7768 36.6008 46.5141V49.4269C37.7042 49.6761 38.76 50.0491 39.7475 50.5386L42.1639 48.4787C42.7755 47.9574 43.7703 47.9574 44.3819 48.4787L46.8318 50.5674C47.128 50.8197 47.2911 51.1556 47.2911 51.5128C47.2911 51.8698 47.128 52.2057 46.8318 52.4582L44.4154 54.5181C44.9894 55.36 45.427 56.2602 45.7193 57.2006H49.1359C50.0008 57.2006 50.7043 57.8003 50.7043 58.5376V61.4914C50.7043 62.2287 50.0008 62.8284 49.1359 62.8284H45.7193C45.427 63.7688 44.9894 64.669 44.4154 65.5109L46.8318 67.5708C47.4434 68.0919 47.4434 68.9403 46.8318 69.4614L44.3819 71.5501C43.7703 72.0712 42.7755 72.0712 42.1639 71.5501L39.7475 69.49C38.7602 69.9795 37.7042 70.3525 36.6008 70.6017V73.5145C36.6008 74.2515 35.8973 74.8513 35.0324 74.8513ZM26.7951 68.7842C26.8609 68.7842 26.9271 68.7992 26.9863 68.8302C28.0616 69.391 29.2276 69.803 30.4518 70.0545C30.6165 70.0883 30.7324 70.2139 30.7324 70.3583V73.5145C30.7324 73.9071 31.1069 74.2263 31.5674 74.2263H35.0322C35.4927 74.2263 35.8672 73.9071 35.8672 73.5145V70.3583C35.8672 70.2139 35.9833 70.0883 36.1478 70.0545C37.3723 69.803 38.538 69.391 39.6131 68.8302C39.7583 68.7548 39.9443 68.7738 40.0638 68.8759L42.6821 71.1081C43.0077 71.3852 43.5376 71.3852 43.8632 71.1081L46.3131 69.0195C46.6387 68.7419 46.6387 68.2903 46.3131 68.0128L43.6948 65.7808C43.575 65.6787 43.5528 65.5199 43.6413 65.3965C44.2988 64.48 44.7821 63.4861 45.0772 62.4425C45.1168 62.302 45.2642 62.2033 45.4335 62.2033H49.1357C49.5962 62.2033 49.9707 61.884 49.9707 61.4914V58.5376C49.9707 58.145 49.5962 57.8258 49.1357 57.8258H45.434C45.2646 57.8258 45.1172 57.7268 45.0776 57.5865C44.7826 56.543 44.2993 55.5492 43.6418 54.6325C43.5533 54.5091 43.5755 54.3503 43.6953 54.2482L46.3136 52.0163C46.4715 51.8818 46.558 51.7031 46.558 51.5128C46.558 51.3225 46.4715 51.1438 46.3136 51.0093L43.8637 48.9207C43.5381 48.6432 43.0082 48.6432 42.6826 48.9207L40.0643 51.1527C39.945 51.2548 39.7588 51.2742 39.6136 51.1983C38.5385 50.6376 37.3727 50.2258 36.1483 49.9743C35.9836 49.9403 35.8677 49.8147 35.8677 49.6705V46.5143C35.8677 46.1217 35.4932 45.8025 35.0327 45.8025H31.5679C31.1074 45.8025 30.7329 46.1217 30.7329 46.5143V49.6705C30.7329 49.8149 30.6168 49.9406 30.4523 49.9743C29.2281 50.2256 28.0623 50.6376 26.9868 51.1983C26.8418 51.2738 26.6558 51.2548 26.536 51.1527L23.9178 48.9207C23.5919 48.6432 23.0622 48.6432 22.7369 48.9207L20.2868 51.0093C20.1291 51.1438 20.0424 51.3225 20.0424 51.5128C20.0424 51.7028 20.1291 51.8816 20.2868 52.0163L22.905 54.2482C23.0248 54.3503 23.0471 54.5091 22.9586 54.6325C22.3013 55.5483 21.818 56.5421 21.5225 57.5865C21.4829 57.727 21.3355 57.8258 21.1661 57.8258H17.464C17.0034 57.8258 16.6289 58.145 16.6289 58.5376V61.4914C16.6289 61.884 17.0034 62.2033 17.464 62.2033H21.1661C21.3355 62.2033 21.4829 62.3022 21.5225 62.4425C21.818 63.4869 22.3013 64.4807 22.9586 65.3965C23.0471 65.5199 23.0248 65.6787 22.905 65.7808L20.2868 68.0128C19.9612 68.2903 19.9612 68.7419 20.2868 69.0195L22.7369 71.1081C23.0627 71.3852 23.5924 71.3852 23.9178 71.1081L26.536 68.8759C26.6064 68.8155 26.7003 68.7842 26.7951 68.7842ZM33.3001 68.1986C28.0061 68.1986 23.6992 64.5271 23.6992 60.0144C23.6992 55.5015 28.0061 51.83 33.3001 51.83C38.5937 51.83 42.9006 55.5015 42.9006 60.0144C42.9006 64.5271 38.5937 68.1986 33.3001 68.1986ZM33.3001 52.4551C28.4104 52.4551 24.4326 55.8461 24.4326 60.0144C24.4326 64.1825 28.4104 67.5735 33.3001 67.5735C38.1894 67.5735 42.1673 64.1825 42.1673 60.0144C42.1673 55.8461 38.1894 52.4551 33.3001 52.4551Z" fill="#53D0F7"/>
<path d="M25.458 36.9962H23.8745C23.8229 34.8924 21.8075 33.2003 19.3273 33.2003C16.8472 33.2003 14.8318 34.8924 14.7802 36.9962H13.1967C11.919 36.9962 10.8735 37.8875 10.8735 38.9767C10.8735 40.0659 11.919 40.9572 13.1967 40.9572H25.458C26.7357 40.9572 27.7812 40.0659 27.7812 38.9767C27.7815 37.8875 26.736 36.9962 25.458 36.9962Z" fill="white"/>
<path d="M25.4582 41.2697H13.1969C11.7138 41.2697 10.507 40.2409 10.507 38.9766C10.507 37.7122 11.7138 36.6836 13.1969 36.6836H14.4345C14.6711 34.5643 16.7946 32.8877 19.3278 32.8877C21.8607 32.8877 23.9845 34.5643 24.2208 36.6836H25.4585C26.9415 36.6836 28.1483 37.7124 28.1483 38.9766C28.1481 40.2411 26.9413 41.2697 25.4582 41.2697ZM13.1969 37.3087C12.1182 37.3087 11.2404 38.057 11.2404 38.9766C11.2404 39.8962 12.1182 40.6445 13.1969 40.6445H25.4582C26.537 40.6445 27.4148 39.8964 27.4148 38.9766C27.4148 38.0568 26.537 37.3087 25.4582 37.3087H23.8745C23.675 37.3087 23.5122 37.1727 23.5078 37.0026C23.4609 35.0784 21.5855 33.5128 19.3276 33.5128C17.0699 33.5128 15.1942 35.0784 15.1468 37.0026C15.1424 37.1727 14.9796 37.3087 14.7802 37.3087H13.1969Z" fill="#233863"/>
<path d="M109.094 36.6083H107.409C107.354 34.3695 105.209 32.5688 102.57 32.5688C99.9305 32.5688 97.786 34.3697 97.731 36.6083H96.0458C94.6859 36.6083 93.5734 37.5567 93.5734 38.7159C93.5734 39.8752 94.6859 40.8235 96.0458 40.8235H109.094C110.454 40.8235 111.567 39.8752 111.567 38.7159C111.567 37.5567 110.454 36.6083 109.094 36.6083Z" fill="white"/>
<path d="M109.094 41.136H96.0457C94.4803 41.136 93.2068 40.0504 93.2068 38.7159C93.2068 37.3814 94.4803 36.2957 96.0457 36.2957H97.3843C97.6244 34.0416 99.8789 32.2562 102.57 32.2562C105.261 32.2562 107.515 34.0419 107.756 36.2957H109.094C110.66 36.2957 111.933 37.3814 111.933 38.7159C111.933 40.0504 110.66 41.136 109.094 41.136ZM96.0457 36.9209C94.8846 36.9209 93.9401 37.7261 93.9401 38.7159C93.9401 39.7057 94.8846 40.5109 96.0457 40.5109H109.094C110.255 40.5109 111.2 39.7057 111.2 38.7159C111.2 37.7261 110.255 36.9209 109.094 36.9209H107.409C107.21 36.9209 107.047 36.785 107.042 36.6148C106.992 34.5561 104.985 32.8812 102.57 32.8812C100.154 32.8812 98.1477 34.5561 98.0974 36.6148C98.093 36.7848 97.9302 36.9209 97.7307 36.9209H96.0457Z" fill="#233863"/>
<path d="M92.0298 77.8987H31.9957V43.6079C31.9957 43.0342 32.5413 42.5691 33.2143 42.5691H90.8113C91.4842 42.5691 92.0298 43.0342 92.0298 43.6079V77.8987Z" fill="#ECF1F7"/>
<path d="M32.1509 77.7665H91.8746V43.6077C91.8746 43.1078 91.3976 42.701 90.811 42.701H33.214C32.6278 42.701 32.1509 43.1076 32.1509 43.6077V77.7665Z" fill="#2F4770"/>
<path d="M91.8746 78.0789H32.1509C31.9485 78.0789 31.7842 77.9389 31.7842 77.7663V43.6078C31.7842 42.9356 32.4256 42.3885 33.2142 42.3885H90.8112C91.5998 42.3885 92.2415 42.9356 92.2415 43.6078V77.7663C92.2412 77.9391 92.077 78.0789 91.8746 78.0789ZM32.5175 77.4538H91.5079V43.6078C91.5079 43.2802 91.1955 43.0137 90.811 43.0137H33.214C32.8299 43.0137 32.5173 43.2802 32.5173 43.6078L32.5175 77.4538Z" fill="#233863"/>
<path d="M66.0216 77.0205H58.0038V76.2303H66.0216V77.0205Z" fill="#243762"/>
<path d="M62.673 43.8639C62.673 44.1648 62.3716 44.4086 62 44.4086C61.6285 44.4086 61.3271 44.1646 61.3271 43.8639C61.3271 43.563 61.6285 43.3192 62 43.3192C62.3716 43.3192 62.673 43.563 62.673 43.8639Z" fill="#ECF1F7"/>
<path d="M98.3893 84.1022H25.5484C24.7579 84.1022 24.1172 83.7373 24.1172 83.2872V82.003C24.1172 81.876 24.2979 81.7733 24.5206 81.7733H99.4795C99.7022 81.7733 99.8828 81.876 99.8828 82.003V83.2516C99.8828 83.7213 99.2143 84.1022 98.3893 84.1022Z" fill="#2F4770"/>
<path d="M98.3893 84.4147H25.5485C24.5401 84.4147 23.7506 83.9194 23.7506 83.2872V82.0031C23.7506 81.6991 24.0889 81.4607 24.5206 81.4607H99.4795C99.9115 81.4607 100.25 81.6991 100.25 82.0031V83.2517C100.25 83.904 99.4326 84.4147 98.3893 84.4147ZM24.4837 82.0883V83.2872C24.4837 83.5243 24.9388 83.7896 25.5482 83.7896H98.3891C99.0532 83.7896 99.5159 83.5062 99.5159 83.2517V82.0883C99.5054 82.0869 99.493 82.0858 99.4793 82.0858H24.5206C24.5066 82.0858 24.4942 82.0869 24.4837 82.0883Z" fill="#233863"/>
<path d="M35.9828 75.246H88.0424C88.7792 75.246 89.3764 74.7369 89.3764 74.1088V46.5106C89.3764 45.8825 88.7792 45.3737 88.0424 45.3737H35.9828C35.2461 45.3737 34.6491 45.8827 34.6491 46.5106V74.1088C34.6491 74.7369 35.2463 75.246 35.9828 75.246Z" fill="white"/>
<path d="M88.0425 75.5585H35.9829C35.0452 75.5585 34.2823 74.9084 34.2823 74.109V46.5108C34.2823 45.7114 35.0452 45.0613 35.9829 45.0613H88.0425C88.9802 45.0613 89.7431 45.7116 89.7431 46.5108V74.109C89.7431 74.9084 88.9802 75.5585 88.0425 75.5585ZM35.9829 45.6862C35.4495 45.6862 35.0156 46.0561 35.0156 46.5106V74.1088C35.0156 74.5635 35.4495 74.9332 35.9829 74.9332H88.0425C88.5758 74.9332 89.0097 74.5635 89.0097 74.1088V46.5106C89.0097 46.0559 88.5758 45.6862 88.0425 45.6862H35.9829Z" fill="#233863"/>
<path opacity="0.11" d="M35.9828 75.246H88.0424C88.7792 75.246 89.3764 74.7369 89.3764 74.1088V46.5106C89.3764 45.8825 88.7792 45.3737 88.0424 45.3737H35.9828C35.2461 45.3737 34.6491 45.8827 34.6491 46.5106V74.1088C34.6491 74.7369 35.2463 75.246 35.9828 75.246Z" fill="#233863"/>
<path d="M89.1346 48.0545V46.972C89.1346 46.1841 88.5421 45.5454 87.8109 45.5454H36.1508C35.4199 45.5454 34.8271 46.1841 34.8271 46.972V48.0587L89.1346 48.0545Z" fill="#3887FE"/>
<path d="M34.8271 48.2669C34.7623 48.2669 34.7 48.245 34.6543 48.2058C34.6086 48.1666 34.5827 48.1137 34.5827 48.0585V46.9718C34.5827 46.0703 35.2862 45.3368 36.1508 45.3368H87.811C88.6756 45.3368 89.3791 46.0703 89.3791 46.9718V48.0543C89.3791 48.1693 89.2698 48.2627 89.1346 48.2627L34.8271 48.2669ZM36.1508 45.7536C35.5558 45.7536 35.0716 46.3001 35.0716 46.9718V47.8501L88.8902 47.8459V46.9718C88.8902 46.2999 88.4062 45.7536 87.811 45.7536H36.1508Z" fill="#233863"/>
<path d="M84.2381 47.0321C84.4084 47.0321 84.5464 46.9145 84.5464 46.7694C84.5464 46.6242 84.4084 46.5066 84.2381 46.5066C84.0679 46.5066 83.9299 46.6242 83.9299 46.7694C83.9299 46.9145 84.0679 47.0321 84.2381 47.0321Z" fill="white"/>
<path d="M85.4711 47.0321C85.6413 47.0321 85.7793 46.9145 85.7793 46.7694C85.7793 46.6242 85.6413 46.5066 85.4711 46.5066C85.3009 46.5066 85.1628 46.6242 85.1628 46.7694C85.1628 46.9145 85.3009 47.0321 85.4711 47.0321Z" fill="white"/>
<path d="M87.0126 46.7694C87.0126 46.9146 86.8745 47.0321 86.7044 47.0321C86.534 47.0321 86.3961 46.9144 86.3961 46.7694C86.3961 46.6243 86.5342 46.5066 86.7044 46.5066C86.8747 46.5066 87.0126 46.6243 87.0126 46.7694Z" fill="white"/>
<path d="M32.2692 77.9302L24.9209 81.6115L98.9429 81.5838L92.1791 77.9466L32.2692 77.9302Z" fill="#2F4770"/>
<path d="M24.921 81.9242C24.7555 81.9242 24.6105 81.8298 24.567 81.694C24.5235 81.5579 24.5924 81.4137 24.7352 81.3422L32.0837 77.6609C32.1399 77.6326 32.2039 77.6178 32.2694 77.6178L92.1796 77.6343C92.2486 77.6343 92.3165 77.6509 92.3749 77.6824L99.1387 81.3195C99.2768 81.3937 99.3406 81.5369 99.2956 81.6706C99.2502 81.8044 99.1069 81.8965 98.9436 81.8965L24.921 81.9242ZM32.3689 78.2429L26.2696 81.2987L97.6752 81.2718L92.073 78.2594L32.3689 78.2429Z" fill="#233863"/>
<g opacity="0.23">
<path d="M32.3445 77.798C32.2675 77.798 32.192 77.8155 32.1257 77.8486C32.1257 77.8486 25.1591 81.7441 24.83 81.7441L97.9879 81.7166C98.4203 81.7164 98.5836 81.2344 98.2179 81.0377L92.329 77.8711C92.2601 77.834 92.1804 77.8144 92.099 77.8144L32.3445 77.798Z" fill="#ECF1F7"/>
<path d="M24.8303 82.0569L24.8298 81.4317C24.7811 81.4317 24.7496 81.4409 24.7484 81.4413C25.1886 81.3106 29.3838 79.008 31.9245 77.5875C32.0619 77.5179 32.202 77.4854 32.3445 77.4854L92.0992 77.502C92.2496 77.502 92.3967 77.5383 92.5246 77.6068L98.4132 80.7734C98.7168 80.9366 98.854 81.2437 98.7545 81.5376C98.655 81.8314 98.347 82.0289 97.9881 82.0291L24.8303 82.0569ZM32.3447 78.1105C32.333 78.1105 32.322 78.113 32.312 78.118C29.0831 79.9236 27.2698 80.9016 26.2402 81.4311L97.9879 81.404C98.0026 81.404 98.0365 81.404 98.0502 81.3642C98.0637 81.3244 98.0358 81.3094 98.0226 81.3021L92.1339 78.1357C92.1234 78.1303 92.1115 78.1272 92.0992 78.1272L32.3447 78.1105Z" fill="#233863"/>
</g>
<path d="M42.1778 77.798L36.941 80.4215L86.8884 80.4028L82.0648 77.809L42.1778 77.798Z" fill="white"/>
<path d="M36.9408 80.7342C36.7753 80.7342 36.6304 80.6398 36.5871 80.504C36.5436 80.3679 36.6125 80.2237 36.7553 80.1522L41.9923 77.5285C42.0485 77.5001 42.1125 77.4854 42.178 77.4854L82.065 77.4966C82.134 77.4966 82.2019 77.5133 82.2604 77.5449L87.084 80.1387C87.2221 80.2131 87.2859 80.356 87.2409 80.4898C87.1954 80.6236 87.0522 80.7157 86.8889 80.7157L36.9408 80.7342ZM42.2775 78.1105L38.2894 80.1087L85.6207 80.0908L81.9585 78.1217L42.2775 78.1105Z" fill="#233863"/>
<path d="M41.5535 80.7325C41.4381 80.7325 41.3245 80.6861 41.2531 80.5996C41.1365 80.4581 41.1766 80.2632 41.3423 80.1641L45.7205 77.5432C45.8863 77.4436 46.1148 77.478 46.2314 77.6193C46.348 77.7608 46.3079 77.9556 46.1422 78.0548L41.764 80.6756C41.6997 80.7142 41.6261 80.7325 41.5535 80.7325Z" fill="#233863"/>
<path d="M46.2847 80.7327C46.1847 80.7327 46.0852 80.6981 46.0129 80.6297C45.877 80.5018 45.8887 80.304 46.0388 80.1884L49.4393 77.5675C49.5896 77.4519 49.8213 77.4613 49.957 77.5896C50.0929 77.7176 50.0812 77.9153 49.9311 78.031L46.5306 80.6518C46.4605 80.706 46.3725 80.7327 46.2847 80.7327Z" fill="#233863"/>
<path d="M51.4466 80.5521C51.3735 80.5521 51.3 80.5336 51.2359 80.4952C51.0702 80.3958 51.0306 80.201 51.1472 80.0597L53.0475 77.7562C53.1639 77.615 53.3927 77.5812 53.5584 77.6806C53.7241 77.78 53.7637 77.9748 53.6471 78.1161L51.7468 80.4196C51.6754 80.5059 51.562 80.5521 51.4466 80.5521Z" fill="#233863"/>
<path d="M82.1017 80.7327C82.0289 80.7327 81.9553 80.7143 81.8913 80.676L77.513 78.0551C77.3473 77.956 77.3072 77.7611 77.4238 77.6196C77.5404 77.4785 77.769 77.4442 77.9347 77.5436L82.3129 80.1644C82.4787 80.2636 82.5188 80.4584 82.4022 80.5999C82.3308 80.6862 82.2171 80.7327 82.1017 80.7327Z" fill="#233863"/>
<path d="M77.3705 80.7326C77.2827 80.7326 77.1947 80.706 77.1246 80.6518L73.7239 78.031C73.5738 77.9153 73.5621 77.7176 73.698 77.5896C73.8341 77.4617 74.0659 77.4519 74.2157 77.5675L77.6164 80.1883C77.7665 80.304 77.7782 80.5018 77.6423 80.6297C77.57 80.6978 77.4705 80.7326 77.3705 80.7326Z" fill="#233863"/>
<path d="M72.2082 80.5521C72.0929 80.5521 71.9794 80.5059 71.9081 80.4194L70.0078 78.1159C69.8912 77.9747 69.931 77.7798 70.0965 77.6804C70.2622 77.581 70.4905 77.615 70.6074 77.7561L72.5077 80.0595C72.6243 80.2008 72.5847 80.3956 72.419 80.495C72.3547 80.5336 72.2813 80.5521 72.2082 80.5521Z" fill="#233863"/>
<path d="M83.5686 79.1857H40.0316C39.8292 79.1857 39.6649 79.0457 39.6649 78.8731C39.6649 78.7006 39.8292 78.5605 40.0316 78.5605H83.5688C83.7712 78.5605 83.9355 78.7006 83.9355 78.8731C83.9353 79.0457 83.7712 79.1857 83.5686 79.1857Z" fill="#233863"/>
<path d="M62.0128 80.7248C61.8104 80.7248 61.6461 80.5848 61.6461 80.4123V77.9386C61.6461 77.766 61.8104 77.626 62.0128 77.626C62.2152 77.626 62.3794 77.766 62.3794 77.9386V80.4123C62.3794 80.5848 62.2152 80.7248 62.0128 80.7248Z" fill="#233863"/>
<path d="M56.6222 80.8095C56.5773 80.8095 56.5318 80.8027 56.4873 80.7877C56.2991 80.7243 56.2069 80.5426 56.2812 80.3821L57.4316 77.9007C57.5059 77.7401 57.7183 77.6609 57.9073 77.7251C58.0955 77.7884 58.1879 77.9701 58.1134 78.1306L56.963 80.612C56.9063 80.7347 56.7682 80.8095 56.6222 80.8095Z" fill="#233863"/>
<path d="M67.1566 80.8096C67.0104 80.8096 66.8726 80.7347 66.8156 80.612L65.6653 78.1306C65.5907 77.9699 65.6831 77.7882 65.8713 77.7251C66.0603 77.6611 66.2729 77.7403 66.347 77.9007L67.4974 80.3822C67.5719 80.5428 67.4795 80.7245 67.2913 80.7877C67.2471 80.8027 67.2014 80.8096 67.1566 80.8096Z" fill="#233863"/>
<path d="M53.739 64.8798L70.2283 64.9094C71.4938 64.9117 72.531 64.1181 72.5334 63.146L72.5537 54.8978C72.5561 53.9257 71.5226 53.1284 70.2571 53.1262L53.7681 53.0966C52.5026 53.0943 51.4655 53.8878 51.463 54.8599L51.4427 63.1081C51.4403 64.0804 52.4735 64.8775 53.739 64.8798Z" fill="#FFA539"/>
<path d="M70.2337 65.222C70.2315 65.222 70.2293 65.222 70.2276 65.222L53.7386 65.1922C53.0358 65.1909 52.3719 64.9769 51.8696 64.5893C51.3565 64.1936 51.0746 63.6672 51.0761 63.1075L51.0964 54.8593C51.0993 53.7138 52.2946 52.7838 53.7628 52.7838C53.765 52.7838 53.7672 52.7838 53.7689 52.7838L70.2579 52.8134C70.9607 52.8147 71.6246 53.0287 72.1269 53.4165C72.64 53.8122 72.9219 54.3386 72.9204 54.8983L72.9001 63.1465C72.8972 64.292 71.7018 65.222 70.2337 65.222ZM53.7628 53.4092C52.6982 53.4092 51.8317 54.0595 51.8297 54.8608L51.8094 63.109C51.8084 63.4895 52.0047 63.8508 52.3616 64.1261C52.7293 64.4095 53.2189 64.5662 53.74 64.5672L70.2291 64.597C70.2308 64.597 70.2322 64.597 70.2339 64.597C71.2985 64.597 72.1651 63.9467 72.167 63.1454L72.1873 54.8972C72.1883 54.5167 71.992 54.1554 71.6351 53.8801C71.2675 53.5965 70.7778 53.4398 70.2567 53.4388L53.7677 53.4092C53.766 53.4092 53.7645 53.4092 53.7628 53.4092Z" fill="#233863"/>
<path d="M52.9854 50.9852L57.4517 50.9931C58.2798 50.9946 58.956 51.5735 58.9543 52.2795L58.9499 54.1014L70.262 54.1216C71.5275 54.1239 72.5608 55.0083 72.5581 56.0871L72.5356 65.2401C72.5329 66.3189 71.4955 67.1997 70.23 67.1974L53.741 67.1678C52.4755 67.1655 51.4422 66.2812 51.4449 65.2024L51.4669 56.2367L51.4674 56.0491L51.4767 52.2657C51.4784 51.5602 52.1575 50.9838 52.9854 50.9852Z" fill="#FFB44F"/>
<path d="M70.2353 67.5101C70.2333 67.5101 70.2316 67.5101 70.2299 67.5101L53.7407 67.4806C53.0308 67.4793 52.362 67.2411 51.8582 66.8096C51.3539 66.378 51.0774 65.807 51.0789 65.2019L51.1109 52.2653C51.1119 51.8404 51.3082 51.4403 51.6634 51.1388C52.0176 50.8381 52.4862 50.6726 52.9829 50.6726C52.9843 50.6726 52.9856 50.6726 52.987 50.6726L57.4533 50.6805C58.4858 50.6824 59.3238 51.3999 59.3216 52.2799L59.3177 53.7892L70.2632 53.809C70.9733 53.8102 71.6421 54.0484 72.1459 54.48C72.6502 54.9113 72.9266 55.4823 72.9254 56.0876L72.9027 65.2409C72.9012 65.846 72.6218 66.4161 72.1156 66.8456C71.6108 67.2743 70.9432 67.5101 70.2353 67.5101ZM52.9824 51.2978C52.681 51.2978 52.3962 51.3986 52.1804 51.5818C51.9638 51.7656 51.8445 52.0088 51.8438 52.2667L51.8117 65.2034C51.8108 65.6418 52.0115 66.0554 52.3771 66.3686C52.7431 66.6818 53.2278 66.8548 53.7416 66.8556L70.2309 66.8852C70.2324 66.8852 70.2338 66.8852 70.235 66.8852C70.7476 66.8852 71.2314 66.7141 71.5978 66.403C71.9652 66.0911 72.1681 65.678 72.1691 65.2398L72.1918 56.0866C72.1928 55.6484 71.9921 55.2345 71.6262 54.9213C71.2602 54.6081 70.7758 54.4352 70.2614 54.4343L58.9493 54.4139C58.852 54.4137 58.7589 54.3806 58.6902 54.322C58.6215 54.2632 58.5829 54.1836 58.5831 54.1009L58.5875 52.2788C58.5887 51.7435 58.0788 51.3069 57.4511 51.3059L52.9848 51.298C52.9841 51.2978 52.9834 51.2978 52.9824 51.2978Z" fill="#233863"/>
<path opacity="0.12" d="M53.1407 52.4452L57.1368 52.4523C57.8778 52.4535 58.4828 52.9716 58.4813 53.6034L58.4774 55.234L68.5991 55.2521C69.7314 55.2542 70.6559 56.0456 70.6534 57.0111L70.6331 65.2024C70.6307 66.1678 69.7025 66.9559 68.5703 66.9541L53.8166 66.9276C52.6843 66.9255 51.7598 66.1341 51.7622 65.1686L51.782 57.1451L51.7825 56.9773L51.7908 53.5915C51.7923 52.9597 52.3998 52.4439 53.1407 52.4452Z" fill="white"/>
<path d="M69.9014 65.2806C69.9014 65.6347 70.238 65.9216 70.6533 65.9216C71.0686 65.9216 71.4053 65.6347 71.4053 65.2806C71.4053 64.9266 71.0686 64.6396 70.6533 64.6396C70.238 64.6396 69.9014 64.9266 69.9014 65.2806Z" fill="white"/>
<path d="M52.6361 54.2164C52.5009 54.2164 52.3916 54.1233 52.3916 54.008V52.6367C52.3916 52.2349 52.7947 51.908 53.2907 51.908H54.4628C54.598 51.908 54.7073 52.0013 54.7073 52.1163C54.7073 52.2314 54.598 52.3247 54.4628 52.3247H53.2907C53.0646 52.3247 52.8805 52.4648 52.8805 52.6367V54.008C52.8805 54.1231 52.7713 54.2164 52.6361 54.2164Z" fill="white"/>
<path d="M63.1873 59.9001C63.0944 59.9001 63.0015 59.8701 62.9301 59.8103L61.7458 58.8179L60.5842 59.8084C60.441 59.9305 60.209 59.9305 60.0657 59.8084C59.9225 59.6863 59.9225 59.4885 60.0657 59.3664L61.4845 58.1567C61.627 58.0355 61.8573 58.0348 62.0008 58.1549L63.4442 59.3645C63.5887 59.4854 63.5906 59.6834 63.4486 59.8065C63.3772 59.869 63.2821 59.9001 63.1873 59.9001Z" fill="white"/>
<path d="M61.7564 61.8087C61.554 61.8087 61.3897 61.6686 61.3897 61.4961V58.3776C61.3897 58.2051 61.554 58.0651 61.7564 58.0651C61.9588 58.0651 62.123 58.2051 62.123 58.3776V61.4961C62.123 61.6688 61.9588 61.8087 61.7564 61.8087Z" fill="white"/>
<path d="M64.4594 63.2896H59.095C58.6404 63.2896 58.2703 62.9743 58.2703 62.5867V60.9611C58.2703 60.7886 58.4346 60.6486 58.637 60.6486C58.8394 60.6486 59.0036 60.7886 59.0036 60.9611V62.5867C59.0036 62.6297 59.0447 62.6645 59.095 62.6645H64.4594C64.4865 62.6645 64.5085 62.6457 64.5085 62.6226V60.9611C64.5085 60.7886 64.6728 60.6486 64.8752 60.6486C65.0776 60.6486 65.2419 60.7886 65.2419 60.9611V62.6226C65.2421 62.9902 64.8908 63.2896 64.4594 63.2896Z" fill="white"/>
<path d="M67.468 72.9598H56.5321C55.7149 72.9598 55.0525 72.3951 55.0525 71.6984V71.3148C55.0525 70.6182 55.7149 70.0535 56.5321 70.0535H67.468C68.2852 70.0535 68.9477 70.6182 68.9477 71.3148V71.6984C68.9477 72.3951 68.2852 72.9598 67.468 72.9598Z" fill="#3D85FD"/>
<path d="M67.468 73.1681H56.5321C55.5812 73.1681 54.8078 72.5088 54.8078 71.6982V71.3146C54.8078 70.5042 55.5812 69.8448 56.5321 69.8448H67.468C68.4189 69.8448 69.1924 70.5042 69.1924 71.3146V71.6982C69.1924 72.5088 68.4189 73.1681 67.468 73.1681ZM56.5321 70.2618C55.8508 70.2618 55.2967 70.7342 55.2967 71.3148V71.6984C55.2967 72.2792 55.8508 72.7516 56.5321 72.7516H67.468C68.1493 72.7516 68.7035 72.2792 68.7035 71.6984V71.3148C68.7035 70.7342 68.1493 70.2618 67.468 70.2618H56.5321Z" fill="#233863"/>
<path d="M67.468 72.9598H61.1154C60.2982 72.9598 59.6358 72.3951 59.6358 71.6984V71.3148C59.6358 70.6182 60.2982 70.0535 61.1154 70.0535H67.468C68.2852 70.0535 68.9476 70.6182 68.9476 71.3148V71.6984C68.9476 72.3951 68.2852 72.9598 67.468 72.9598Z" fill="white"/>
<path d="M67.468 73.1681H61.1154C60.1647 73.1681 59.3913 72.5088 59.3913 71.6982V71.3146C59.3913 70.5042 60.1647 69.8448 61.1154 69.8448H67.468C68.4189 69.8448 69.1923 70.5042 69.1923 71.3146V71.6982C69.1923 72.5088 68.4189 73.1681 67.468 73.1681ZM61.1154 70.2618C60.4343 70.2618 59.8802 70.7342 59.8802 71.3148V71.6984C59.8802 72.2792 60.4343 72.7516 61.1154 72.7516H67.468C68.1493 72.7516 68.7034 72.2792 68.7034 71.6984V71.3148C68.7034 70.7342 68.1493 70.2618 67.468 70.2618H61.1154Z" fill="#233863"/>
<path d="M59.0926 70.0533H57.1798V72.9597H59.0926V70.0533Z" fill="#3D85FD"/>
<path d="M59.0924 73.1682H57.1798C57.0447 73.1682 56.9354 73.075 56.9354 72.9598V70.0535C56.9354 69.9382 57.0447 69.8451 57.1798 69.8451H59.0924C59.2275 69.8451 59.3368 69.9382 59.3368 70.0535V72.9598C59.3368 73.075 59.2275 73.1682 59.0924 73.1682ZM57.4243 72.7514H58.8479V70.2619H57.4243V72.7514Z" fill="#233863"/>
<path d="M60.9849 70.0533H59.0721V72.9597H60.9849V70.0533Z" fill="#3D85FD"/>
<path d="M60.9846 73.1682H59.0721C58.9369 73.1682 58.8276 73.075 58.8276 72.9598V70.0535C58.8276 69.9382 58.9369 69.8451 59.0721 69.8451H60.9846C61.1198 69.8451 61.229 69.9382 61.229 70.0535V72.9598C61.229 73.075 61.1195 73.1682 60.9846 73.1682ZM59.3162 72.7514H60.7399V70.2619H59.3162V72.7514Z" fill="#233863"/>
<path d="M62.9116 70.0533H60.9988V72.9597H62.9116V70.0533Z" fill="#3D85FD"/>
<path d="M62.9116 73.1682H60.9991C60.8639 73.1682 60.7546 73.075 60.7546 72.9598V70.0535C60.7546 69.9382 60.8639 69.8451 60.9991 69.8451H62.9116C63.0468 69.8451 63.156 69.9382 63.156 70.0535V72.9598C63.156 73.075 63.0465 73.1682 62.9116 73.1682ZM61.2433 72.7514H62.6669V70.2619H61.2433V72.7514Z" fill="#233863"/>
<path d="M64.8038 70.0533H62.891V72.9597H64.8038V70.0533Z" fill="#3D85FD"/>
<path d="M64.8039 73.1682H62.8911C62.7559 73.1682 62.6466 73.075 62.6466 72.9598V70.0535C62.6466 69.9382 62.7559 69.8451 62.8911 69.8451H64.8039C64.939 69.8451 65.0483 69.9382 65.0483 70.0535V72.9598C65.0483 73.075 64.9388 73.1682 64.8039 73.1682ZM63.1355 72.7514H64.5594V70.2619H63.1355V72.7514Z" fill="#233863"/>
<path d="M66.7164 70.0533H64.8036V72.9597H66.7164V70.0533Z" fill="white"/>
<path d="M66.7164 73.1682H64.8038C64.6687 73.1682 64.5594 73.075 64.5594 72.9598V70.0535C64.5594 69.9382 64.6687 69.8451 64.8038 69.8451H66.7164C66.8515 69.8451 66.9608 69.9382 66.9608 70.0535V72.9598C66.9608 73.075 66.8515 73.1682 66.7164 73.1682ZM65.0483 72.7514H66.4719V70.2619H65.0483V72.7514Z" fill="#233863"/>
<path opacity="0.46" d="M42.9534 70.9939L27.7152 75.2858C26.9003 75.5152 26.0215 75.1382 25.7521 74.4435L20.7764 61.6057C20.5073 60.9109 20.9495 60.1618 21.7645 59.9321L37.0027 55.6403C37.8176 55.4106 38.6964 55.7878 38.9658 56.4826L43.9415 69.3204C44.2106 70.0152 43.7682 70.7643 42.9534 70.9939Z" fill="#233863"/>
<path d="M41.484 70.427L27.3725 74.4015C26.5575 74.6312 25.6787 74.254 25.4094 73.5592L20.7468 61.5295C20.4775 60.8348 20.9199 60.0856 21.7349 59.856L35.8464 55.8815C36.6614 55.6519 37.5402 56.029 37.8096 56.7238L42.4718 68.7535C42.7412 69.4483 42.299 70.1974 41.484 70.427Z" fill="white"/>
<path d="M26.8831 74.7818C26.5871 74.7818 26.2933 74.7229 26.0214 74.6062C25.5631 74.4097 25.2221 74.0725 25.0613 73.6572L20.399 61.6275C20.2379 61.2122 20.2763 60.7683 20.5068 60.3776C20.7373 59.9869 21.1328 59.6962 21.62 59.5591L35.7317 55.5846C36.2194 55.4468 36.7396 55.4802 37.1977 55.6765C37.656 55.873 37.997 56.2101 38.1579 56.6254L42.8204 68.6554C43.1523 69.5127 42.6046 70.4404 41.5994 70.7236L27.4876 74.6981C27.2894 74.7541 27.0857 74.7818 26.8831 74.7818ZM36.3353 56.1268C36.2099 56.1268 36.0842 56.1439 35.9618 56.1782L21.85 60.1527C21.2284 60.328 20.8896 60.9017 21.0949 61.4316L25.7572 73.4613C25.9625 73.9912 26.6357 74.2796 27.2573 74.105L41.3691 70.1305C41.9905 69.9553 42.3293 69.3818 42.124 68.8519L37.4617 56.8222C37.3622 56.5654 37.1512 56.357 36.8679 56.2356C36.6997 56.1632 36.5181 56.1268 36.3353 56.1268Z" fill="#233863"/>
<path d="M35.8451 57.9643L23.1894 61.5287L27.3707 72.3174L40.0264 68.753L35.8451 57.9643Z" fill="#3D85FD"/>
<path d="M27.3723 72.6309C27.3156 72.6309 27.2591 72.6197 27.2073 72.5976C27.1205 72.5603 27.0545 72.4953 27.0242 72.4165L22.8428 61.6277C22.779 61.4637 22.8836 61.287 23.0757 61.2328L35.7316 57.6684C35.9244 57.6136 36.1312 57.7034 36.1948 57.867L40.3763 68.6556C40.4068 68.7344 40.3995 68.8203 40.3557 68.8942C40.312 68.9682 40.2357 69.0245 40.1433 69.0503L27.4874 72.6149C27.4498 72.6257 27.4109 72.6309 27.3723 72.6309ZM23.6541 61.7284L27.6055 71.9237L39.5652 68.555L35.6135 58.3599L23.6541 61.7284Z" fill="#233863"/>
<path d="M26.5318 70.0997L27.0901 67.1951C27.2392 66.4195 28.2439 66.0033 29.0513 66.383L30.6028 67.1123C31.2136 67.3995 31.9773 67.1119 32.1398 66.5336L32.9834 63.5317C33.312 62.3622 34.9955 61.9263 36.0317 62.7423L38.4585 64.6536L40.0679 68.8063L27.412 72.3709L26.5318 70.0997Z" fill="white"/>
<path d="M27.4121 72.6836C27.3554 72.6836 27.2989 72.6724 27.2471 72.6503C27.1606 72.613 27.0943 72.548 27.064 72.4692L26.1838 70.1978C26.1652 70.1499 26.1603 70.0988 26.1698 70.0492L26.7279 67.1444C26.8171 66.6801 27.1669 66.2802 27.6631 66.0746C28.1598 65.8687 28.7448 65.882 29.2281 66.1091L30.7796 66.8385C30.9697 66.9277 31.1924 66.936 31.3909 66.8614C31.5896 66.7868 31.7322 66.6405 31.7828 66.4607L32.6263 63.4587C32.8114 62.8006 33.3753 62.2901 34.1348 62.0932C34.8955 61.8963 35.6971 62.0534 36.2798 62.5127L38.7069 64.4242C38.7529 64.46 38.7868 64.5054 38.8061 64.5557L40.4156 68.7083C40.4794 68.8723 40.3747 69.049 40.1826 69.1032L27.5267 72.6678C27.4896 72.6782 27.4507 72.6836 27.4121 72.6836ZM26.9083 70.0743L27.6453 71.9762L39.605 68.6074L38.1403 64.8284L35.7829 62.9717C35.3927 62.6648 34.8564 62.5602 34.3487 62.6912C33.8407 62.8229 33.4638 63.1643 33.3401 63.6044L32.4965 66.6063C32.3919 66.9775 32.0971 67.279 31.6874 67.4332C31.2775 67.5874 30.8177 67.5701 30.4258 67.3859L28.8744 66.6566C28.5952 66.5253 28.2708 66.518 27.9841 66.6368C27.6974 66.7553 27.5033 66.9773 27.4519 67.2452L26.9083 70.0743Z" fill="#233863"/>
<path d="M31.3122 63.3495C31.5696 64.0138 31.1467 64.7302 30.3674 64.9499C29.5881 65.1693 28.7475 64.8088 28.4901 64.1445C28.2327 63.4802 28.6556 62.7635 29.4349 62.5441C30.2142 62.3245 31.0548 62.6852 31.3122 63.3495Z" fill="white"/>
<path d="M29.8994 65.3271C29.6138 65.3271 29.3305 65.2704 29.0682 65.1577C28.626 64.968 28.2973 64.6427 28.142 64.2422C27.9868 63.8417 28.024 63.4137 28.2464 63.0367C28.4689 62.6598 28.8502 62.3795 29.3203 62.2472C29.7903 62.1144 30.2922 62.1461 30.7344 62.3359C31.1763 62.5256 31.5054 62.8507 31.6606 63.2514C31.816 63.6521 31.7789 64.0803 31.5564 64.4571C31.3338 64.834 30.9524 65.1141 30.4826 65.2466C30.2912 65.3004 30.0949 65.3271 29.8994 65.3271ZM29.9023 62.7921C29.7842 62.7921 29.6654 62.8081 29.55 62.8406C29.266 62.9209 29.0357 63.0901 28.9013 63.3178C28.7668 63.5456 28.7444 63.8042 28.8382 64.0461C28.9321 64.2883 29.1308 64.4846 29.3978 64.5992C29.6649 64.7136 29.968 64.7323 30.2523 64.653C30.5361 64.5729 30.7666 64.4035 30.9011 64.1758C31.0355 63.9482 31.058 63.6894 30.9642 63.4475C30.87 63.2053 30.6716 63.009 30.4044 62.8944C30.246 62.8265 30.0746 62.7921 29.9023 62.7921Z" fill="#233863"/>
<path opacity="0.46" d="M65.2174 45.501L40.945 52.3375C40.13 52.5671 39.2513 52.1899 38.9819 51.4952L31.0506 31.0316C30.7815 30.3368 31.2237 29.5877 32.0387 29.358L56.3111 22.5216C57.126 22.292 58.0048 22.6692 58.2742 23.3639L66.2052 43.8275C66.4748 44.5223 66.0324 45.2714 65.2174 45.501Z" fill="#233863"/>
<path d="M63.0183 44.6528L40.4321 51.0143C39.6172 51.2439 38.7384 50.8668 38.469 50.172L31.0068 30.9179C30.7375 30.2231 31.1799 29.474 31.9949 29.2443L54.5811 22.8828C55.3961 22.6532 56.2748 23.0304 56.5442 23.7251L64.0066 42.9793C64.2755 43.674 63.8333 44.4232 63.0183 44.6528Z" fill="white"/>
<path d="M39.9459 51.3937C39.1398 51.3937 38.3874 50.9572 38.1209 50.2699L30.6588 31.0158C30.4977 30.6005 30.536 30.1568 30.7666 29.7661C30.9971 29.3756 31.3926 29.0847 31.8798 28.9476L54.4657 22.5861C55.4723 22.3029 56.5594 22.7701 56.8918 23.6271L64.3542 42.8813C64.5153 43.2966 64.4769 43.7405 64.2464 44.131C64.0159 44.5215 63.6206 44.8124 63.1332 44.9495L40.5473 51.311C40.3481 51.3671 40.1454 51.3937 39.9459 51.3937ZM55.0675 23.1285C54.9443 23.1285 54.8192 23.1449 54.696 23.1797L32.11 29.5413C31.8086 29.6261 31.5647 29.8059 31.4219 30.0472C31.2794 30.2887 31.2557 30.5632 31.3552 30.8197L38.8173 50.0738C39.0227 50.6038 39.6959 50.8928 40.3175 50.7173L62.9034 44.3558C63.5251 44.1808 63.8639 43.6071 63.6585 43.0772L56.1961 23.823C56.0311 23.3983 55.5657 23.1285 55.0675 23.1285Z" fill="#233863"/>
<path d="M53.8469 26.2075L34.9054 31.5422L41.1634 47.6894L60.1048 42.3546L53.8469 26.2075Z" fill="#3AAED5"/>
<path d="M41.165 48.0022C41.011 48.0022 40.8677 47.9191 40.8169 47.7876L34.5586 31.6402C34.5281 31.5615 34.5354 31.4756 34.5792 31.4016C34.6229 31.3277 34.6992 31.2714 34.7916 31.2453L53.7333 25.9103C53.8257 25.8841 53.9262 25.8905 54.0135 25.928C54.1 25.9653 54.1663 26.0306 54.1966 26.1091L60.4548 42.2565C60.5186 42.4205 60.414 42.5972 60.2219 42.6514L41.2804 47.9864C41.2417 47.9972 41.2029 48.0022 41.165 48.0022ZM35.3697 31.7411L41.3982 47.2948L59.6435 42.1559L53.6153 26.6022L35.3697 31.7411Z" fill="#233863"/>
<path d="M39.9071 44.3691L40.7426 40.0216C40.9658 38.8607 42.4697 38.2381 43.6779 38.8061L45.9999 39.8978C46.9141 40.3275 48.0572 39.8972 48.3004 39.0318L49.5629 34.5389C50.0548 32.7886 52.5743 32.1362 54.125 33.3575L57.7575 36.2182L60.1662 42.4334L41.2244 47.7685L39.9071 44.3691Z" fill="white"/>
<path d="M41.2246 48.0813C41.0706 48.0813 40.9274 47.9981 40.8765 47.8666L39.5587 44.4673C39.5401 44.4193 39.5353 44.3683 39.5448 44.3187L40.3803 39.9712C40.5064 39.3163 40.9802 38.7745 41.6803 38.4846C42.3806 38.1947 43.1731 38.2122 43.8546 38.5325L46.1768 39.6242C46.5117 39.7816 46.9043 39.7966 47.2534 39.6647C47.6029 39.533 47.8544 39.2758 47.9432 38.9591L49.206 34.4661C49.4675 33.5353 50.2654 32.8133 51.34 32.5349C52.4143 32.2567 53.5485 32.4782 54.3735 33.1279L58.0057 35.9888C58.0517 36.0246 58.0857 36.0701 58.105 36.1203L60.514 42.3355C60.5778 42.4995 60.4732 42.6762 60.281 42.7304L41.3395 48.0654C41.3014 48.076 41.2625 48.0813 41.2246 48.0813ZM40.2833 44.3439L41.4578 47.3738L59.7032 42.2349L57.4389 36.3931L53.8763 33.587C53.2444 33.0898 52.3759 32.9197 51.5534 33.1329C50.7306 33.3459 50.12 33.8987 49.9195 34.6116L48.6567 39.1045C48.514 39.6128 48.1106 40.0252 47.5499 40.2363C46.9889 40.4476 46.3594 40.4238 45.8229 40.1713L43.5006 39.0795C43.0308 38.8584 42.4842 38.8466 42.001 39.0464C41.5182 39.2465 41.1911 39.6201 41.1043 40.0719L40.2833 44.3439Z" fill="#233863"/>
<path d="M47.0618 34.2663C47.4473 35.2607 46.8139 36.333 45.6477 36.6614C44.4812 36.9898 43.2233 36.4501 42.838 35.4559C42.4525 34.4615 43.0859 33.3892 44.2521 33.0608C45.4184 32.7324 46.6763 33.2721 47.0618 34.2663Z" fill="white"/>
<path d="M44.9471 37.0709C44.5481 37.0709 44.1517 36.9913 43.7847 36.8339C43.1668 36.5689 42.7067 36.1142 42.4897 35.554C42.2724 34.9939 42.3242 34.3952 42.6354 33.8682C42.9465 33.3412 43.4797 32.949 44.137 32.764C44.7936 32.579 45.4963 32.6229 46.1148 32.8884C46.7327 33.1535 47.1928 33.6082 47.4099 34.1683C47.6272 34.7284 47.5753 35.3273 47.2642 35.8541C46.953 36.3811 46.4196 36.7733 45.7625 36.9583C45.4954 37.0336 45.2206 37.0709 44.9471 37.0709ZM44.9517 33.2768C44.7554 33.2768 44.5587 33.3035 44.367 33.3577C43.8957 33.4904 43.5137 33.7715 43.2905 34.1493C43.0675 34.5271 43.0304 34.9564 43.1859 35.358C43.3416 35.7595 43.6713 36.0854 44.1147 36.2757C44.5582 36.4661 45.062 36.4976 45.5325 36.3649C46.5052 36.091 47.0349 35.1935 46.7137 34.3646C46.558 33.963 46.2282 33.6371 45.7848 33.4469C45.522 33.3339 45.2377 33.2768 44.9517 33.2768Z" fill="#233863"/>
<path opacity="0.48" d="M76.7351 41.8154L54.5682 34.4601C53.7683 34.1948 53.3723 33.4269 53.6838 32.7451L62.2161 14.0582C62.5275 13.3764 63.4281 13.0388 64.2279 13.3043L86.3949 20.6595C87.1947 20.9248 87.5907 21.6927 87.2793 22.3745L78.7469 41.0615C78.4355 41.7431 77.535 42.0807 76.7351 41.8154Z" fill="#233863"/>
<path d="M75.7387 40.0819L55.1242 33.2418C54.3244 32.9765 53.9284 32.2086 54.2398 31.5268L62.2637 13.9534C62.5749 13.2716 63.4757 12.934 64.2755 13.1995L84.89 20.0397C85.6898 20.3052 86.0858 21.0728 85.7744 21.7547L77.7505 39.328C77.4393 40.0096 76.5386 40.3472 75.7387 40.0819Z" fill="white"/>
<path d="M76.3003 40.4848C76.0691 40.4848 75.8341 40.449 75.6058 40.3733L54.9913 33.5332C54.0045 33.2056 53.5142 32.2547 53.8982 31.4135L61.9221 13.8402C62.3061 12.9987 63.4217 12.5809 64.4086 12.9081L85.0231 19.7482C86.0099 20.0758 86.5005 21.0267 86.1162 21.8679L78.0923 39.4412C77.797 40.0881 77.0693 40.4848 76.3003 40.4848ZM75.8718 39.7907C76.4824 39.9932 77.1715 39.7346 77.4091 39.2147L85.433 21.6414C85.6703 21.1213 85.367 20.5334 84.7571 20.3309L64.1428 13.4907C63.5315 13.2877 62.8429 13.547 62.6055 14.0669L54.5816 31.6402C54.3443 32.1603 54.6476 32.7482 55.2575 32.9505L75.8718 39.7907Z" fill="#233863"/>
<path d="M82.1215 22.0991L64.6827 16.3131L57.8954 31.1793L75.3343 36.9653L82.1215 22.0991Z" fill="#3D85FD"/>
<path d="M75.3335 37.2795C75.2883 37.2795 75.2433 37.2724 75.2006 37.2582L57.7619 31.4719C57.5732 31.4091 57.4798 31.228 57.5531 31.0672L64.3409 16.2011C64.3761 16.1238 64.446 16.0617 64.5349 16.0284C64.6242 15.995 64.7249 15.9932 64.8153 16.0232L82.254 21.8098C82.443 21.8725 82.5361 22.0536 82.4628 22.2144L75.675 37.0805C75.6401 37.1578 75.5699 37.2199 75.4809 37.2532C75.434 37.2705 75.3839 37.2795 75.3335 37.2795ZM58.3696 31.0026L75.1248 36.5622L81.6463 22.2788L64.8911 16.7192L58.3696 31.0026Z" fill="#233863"/>
<path d="M59.3109 28.1381L62.9614 25.4191C63.9362 24.6931 65.4604 25.0084 65.9363 26.0345L66.8508 28.0066C67.2108 28.7828 68.3392 29.0537 69.1214 28.5515L73.1828 25.9447C74.7651 24.9292 77.0446 25.7402 77.3103 27.4131L77.9331 31.332L75.3205 37.0542L57.8818 31.2678L59.3109 28.1381Z" fill="white"/>
<path d="M75.3205 37.367C75.276 37.367 75.2313 37.3601 75.1875 37.3455L57.7489 31.5592C57.5599 31.4964 57.4668 31.3153 57.5401 31.1545L58.9691 28.0248C58.9904 27.9777 59.0251 27.936 59.0694 27.9029L62.7199 25.1839C63.2755 24.7703 64.0049 24.6177 64.7221 24.7663C65.4391 24.9145 66.0057 25.335 66.2768 25.9199L67.1913 27.892C67.3203 28.1706 67.5885 28.3769 67.9268 28.458C68.2649 28.5393 68.6201 28.4824 68.9004 28.3023L72.9619 25.6955C73.8101 25.1512 74.9013 25.0341 75.881 25.3827C76.8608 25.7313 77.5308 26.4748 77.6733 27.3717L78.2961 31.2906C78.3045 31.3431 78.2971 31.3964 78.2744 31.4458L75.6615 37.168C75.6058 37.2914 75.4672 37.367 75.3205 37.367ZM58.3568 31.0899L75.112 36.6495L77.5574 31.2941L76.9473 27.4553C76.8402 26.7807 76.3362 26.2216 75.5992 25.9593C74.8627 25.6971 74.0416 25.7849 73.4036 26.1943L69.3421 28.8012C68.8772 29.0998 68.2888 29.1942 67.7283 29.0592C67.1681 28.9246 66.7239 28.5828 66.51 28.1213L65.5955 26.1493C65.4129 25.7561 65.0316 25.4731 64.5498 25.3733C64.067 25.2733 63.5767 25.3758 63.2029 25.6544L59.6203 28.323L58.3568 31.0899Z" fill="#233863"/>
<path d="M71.5646 24.4741C71.1466 25.3895 69.9374 25.8427 68.8635 25.4864C67.7897 25.13 67.258 24.0992 67.676 23.1838C68.094 22.2683 69.3033 21.8151 70.3771 22.1714C71.451 22.5278 71.9826 23.5586 71.5646 24.4741Z" fill="#FFB44F"/>
<path d="M69.6211 25.9213C69.3204 25.9213 69.0193 25.8736 68.7306 25.7777C67.47 25.3593 66.8435 24.1448 67.3343 23.0704C67.8249 21.9958 69.2503 21.4625 70.5101 21.8801C71.7705 22.2984 72.397 23.5128 71.9061 24.5875C71.6685 25.108 71.2075 25.5185 70.6074 25.7431C70.2913 25.8617 69.9565 25.9213 69.6211 25.9213ZM69.6225 22.3628C68.9337 22.3628 68.2823 22.7178 68.0178 23.2969C67.6741 24.0502 68.1131 24.9017 68.9968 25.1949C69.4253 25.337 69.8927 25.3285 70.3129 25.1707C70.7335 25.0132 71.0567 24.7254 71.2234 24.3605C71.5673 23.6072 71.1281 22.7558 70.2447 22.4626C70.0401 22.3951 69.8293 22.3628 69.6225 22.3628Z" fill="#233863"/>
</svg>
