<svg width="412" height="360" viewBox="0 0 412 360" fill="none" xmlns="http://www.w3.org/2000/svg">
<g clip-path="url(#clip0_3114_835)">
<path d="M412 0H0V360H412V0Z" fill="none"/>
<path d="M184.645 138.709H18.446V261.31H184.645V138.709Z" fill="#F5F9FF"/>
<path d="M184.645 138.709H18.446V154.001H184.645V138.709Z" fill="#D0DBF7"/>
<path d="M31.788 146.707C31.788 148.64 30.221 150.206 28.289 150.206C26.356 150.206 24.79 148.639 24.79 146.707C24.79 144.775 26.357 143.208 28.289 143.208C30.221 143.208 31.788 144.775 31.788 146.707Z" fill="#F2F2F2"/>
<path d="M43.571 146.707C43.571 148.64 42.004 150.206 40.072 150.206C38.14 150.206 36.573 148.639 36.573 146.707C36.573 144.775 38.14 143.208 40.072 143.208C42.004 143.208 43.571 144.775 43.571 146.707Z" fill="#F2F2F2"/>
<path d="M55.354 146.707C55.354 148.64 53.787 150.206 51.855 150.206C49.922 150.206 48.356 148.639 48.356 146.707C48.356 144.775 49.923 143.208 51.855 143.208C53.788 143.208 55.354 144.775 55.354 146.707Z" fill="#F2F2F2"/>
<path d="M129.92 187.347L121.564 178.992L101.546 199.009L81.5271 178.992L73.1711 187.347L93.1901 207.365L73.1711 227.382L81.5271 235.738L101.546 215.72L121.564 235.738L129.92 227.382L109.901 207.365L129.92 187.347Z" fill="#E3EBFC"/>
<path d="M388.669 61.384H222.47V183.985H388.669V61.384Z" fill="#F5F9FF"/>
<path d="M388.669 61.384H222.47V76.676H388.669V61.384Z" fill="#D0DBF7"/>
<path d="M235.812 69.3821C235.812 71.3151 234.245 72.8811 232.313 72.8811C230.38 72.8811 228.814 71.3141 228.814 69.3821C228.814 67.4501 230.381 65.8831 232.313 65.8831C234.245 65.8831 235.812 67.4491 235.812 69.3821Z" fill="#F2F2F2"/>
<path d="M247.595 69.3821C247.595 71.3151 246.028 72.8811 244.096 72.8811C242.163 72.8811 240.597 71.3141 240.597 69.3821C240.597 67.4501 242.164 65.8831 244.096 65.8831C246.028 65.8831 247.595 67.4491 247.595 69.3821Z" fill="#F2F2F2"/>
<path d="M259.378 69.3821C259.378 71.3151 257.811 72.8811 255.879 72.8811C253.946 72.8811 252.38 71.3141 252.38 69.3821C252.38 67.4501 253.947 65.8831 255.879 65.8831C257.811 65.8831 259.378 67.4491 259.378 69.3821Z" fill="#F2F2F2"/>
<path d="M333.943 110.022L325.588 101.666L305.569 121.684L285.55 101.666L277.195 110.022L297.213 130.039L277.195 150.057L285.55 158.412L305.569 138.395L325.588 158.412L333.943 150.057L313.925 130.039L333.943 110.022Z" fill="#E3EBFC"/>
<path d="M205.348 360.477C317.553 360.477 408.513 352.617 408.513 342.922C408.513 333.227 317.553 325.367 205.348 325.367C93.1432 325.367 2.18311 333.227 2.18311 342.922C2.18311 352.617 93.1432 360.477 205.348 360.477Z" fill="#EDF0FC"/>
<path d="M155.799 63.4201C154.252 60.1771 154.334 57.035 156.044 53.994L156.875 52.5451C157.688 51.2211 158.207 50.2031 158.433 49.4901C158.658 48.7781 158.598 48.0551 158.249 47.3241C157.369 45.4801 155.386 45.2941 152.303 46.7651C150.873 47.4471 149.485 48.344 148.141 49.453C146.798 50.562 145.609 51.7931 144.575 53.1441L141.072 45.801C143.359 43.071 146.316 40.8411 149.94 39.1121C153.85 37.2461 157.341 36.5861 160.41 37.1321C163.48 37.6781 165.705 39.3961 167.085 42.2891C167.859 43.9101 168.119 45.3961 167.866 46.7461C167.612 48.0971 166.906 49.8091 165.75 51.8821C164.984 53.302 164.439 54.371 164.119 55.09C163.799 55.809 163.639 56.5181 163.643 57.2191C163.646 57.9211 163.844 58.685 164.238 59.51L164.671 60.417L156.278 64.4211L155.799 63.4201ZM162.226 74.374C160.981 73.934 160.063 73.0931 159.471 71.8541C158.865 70.5831 158.785 69.3331 159.234 68.1041C159.681 66.8761 160.542 65.9581 161.813 65.3521C163.053 64.7601 164.311 64.6771 165.587 65.1021C166.863 65.5291 167.797 66.36 168.388 67.6C168.98 68.84 169.039 70.0901 168.567 71.3491C168.094 72.6081 167.238 73.5341 165.998 74.1251C164.728 74.7311 163.469 74.815 162.226 74.374Z" fill="#E2E6FF"/>
<path d="M196.546 35.41C198.636 30.42 202.246 27.361 207.376 26.231L209.837 25.71C212.138 25.295 213.803 24.856 214.83 24.395C215.855 23.934 216.606 23.141 217.078 22.016C218.266 19.179 216.486 16.7661 211.742 14.7781C209.541 13.8561 207.143 13.197 204.549 12.801C201.957 12.404 199.381 12.3051 196.828 12.4981L201.561 1.19905C206.921 1.02905 212.39 2.11305 217.966 4.44905C223.983 6.96905 228.225 10.2271 230.691 14.2201C233.158 18.2151 233.459 22.437 231.595 26.8881C230.55 29.383 229.143 31.1651 227.373 32.2351C225.601 33.3041 222.971 34.2291 219.483 35.0101C217.119 35.5731 215.373 36.035 214.244 36.396C213.116 36.758 212.159 37.2901 211.375 37.9971C210.589 38.7041 209.931 39.693 209.399 40.963L208.815 42.3581L195.901 36.949L196.546 35.41ZM190.691 53.613C189.936 51.774 189.96 49.9 190.759 47.992C191.578 46.036 192.902 44.693 194.733 43.964C196.56 43.234 198.454 43.28 200.41 44.099C202.318 44.898 203.673 46.228 204.476 48.087C205.276 49.947 205.279 51.831 204.48 53.738C203.681 55.6451 202.336 56.966 200.449 57.699C198.561 58.431 196.663 58.398 194.755 57.599C192.799 56.781 191.442 55.451 190.691 53.613Z" fill="#E2E6FF"/>
<path d="M406.055 215.369V209.628H402.238V215.369H396.497V219.186H402.238V224.927H406.055V219.186H411.797V215.369H406.055Z" fill="#CAD2F9"/>
<path d="M370.005 31.599V22.843H364.184V31.599H355.428V37.42H364.184V46.176H370.005V37.42H378.762V31.599H370.005Z" fill="#CAD2F9"/>
<path d="M354.138 201.078V196.897H351.358V201.078H347.177V203.858H351.358V208.039H354.138V203.858H358.319V201.078H354.138Z" fill="#CAD2F9"/>
<path d="M115.711 55.648V51.467H112.931V55.648H108.75V58.428H112.931V62.609H115.711V58.428H119.892V55.648H115.711Z" fill="#CAD2F9"/>
<path d="M83.4799 27.997V22.255H79.6629V27.997H73.9219V31.813H79.6629V37.554H83.4799V31.813H89.2219V27.997H83.4799Z" fill="#CAD2F9"/>
<path d="M272.01 39.718C272.01 40.924 271.033 41.901 269.827 41.901C268.621 41.901 267.644 40.923 267.644 39.718C267.644 38.512 268.622 37.535 269.827 37.535C271.033 37.535 272.01 38.512 272.01 39.718Z" fill="#EEF1FF"/>
<path d="M280.951 2.183C280.951 3.389 279.973 4.366 278.768 4.366C277.562 4.366 276.585 3.388 276.585 2.183C276.585 0.976999 277.562 0 278.768 0C279.973 0 280.951 0.977999 280.951 2.183Z" fill="#EEF1FF"/>
<path d="M323.602 24.263C325.885 24.263 327.736 22.4121 327.736 20.129C327.736 17.8459 325.885 15.995 323.602 15.995C321.319 15.995 319.468 17.8459 319.468 20.129C319.468 22.4121 321.319 24.263 323.602 24.263Z" fill="#EEF1FF"/>
<path d="M410.696 175.422C410.696 176.628 409.719 177.605 408.513 177.605C407.307 177.605 406.33 176.627 406.33 175.422C406.33 174.216 407.307 173.239 408.513 173.239C409.719 173.238 410.696 174.216 410.696 175.422Z" fill="#EEF1FF"/>
<path d="M408.513 243.586C408.513 244.792 407.535 245.769 406.33 245.769C405.124 245.769 404.147 244.791 404.147 243.586C404.147 242.38 405.124 241.403 406.33 241.403C407.536 241.403 408.513 242.38 408.513 243.586Z" fill="#EEF1FF"/>
<path d="M76.105 124.366C76.105 125.572 75.127 126.549 73.922 126.549C72.716 126.549 71.739 125.572 71.739 124.366C71.739 123.16 72.716 122.183 73.922 122.183C75.128 122.183 76.105 123.16 76.105 124.366Z" fill="#EEF1FF"/>
<path d="M38.1069 37.954C40.39 37.954 42.2409 36.1032 42.2409 33.82C42.2409 31.5369 40.39 29.686 38.1069 29.686C35.8238 29.686 33.9729 31.5369 33.9729 33.82C33.9729 36.1032 35.8238 37.954 38.1069 37.954Z" fill="#EEF1FF"/>
<path d="M119.633 10.496C119.633 11.702 118.656 12.679 117.45 12.679C116.244 12.679 115.267 11.702 115.267 10.496C115.267 9.28999 116.245 8.31299 117.45 8.31299C118.656 8.31299 119.633 9.28999 119.633 10.496Z" fill="#EEF1FF"/>
<path d="M4.366 141.424C4.366 142.63 3.389 143.607 2.183 143.607C0.976999 143.607 0 142.629 0 141.424C0 140.218 0.977999 139.241 2.183 139.241C3.388 139.241 4.366 140.218 4.366 141.424Z" fill="#EEF1FF"/>
<path d="M4.366 257.768C4.366 258.974 3.389 259.951 2.183 259.951C0.976999 259.951 0 258.974 0 257.768C0 256.562 0.977999 255.585 2.183 255.585C3.388 255.584 4.366 256.562 4.366 257.768Z" fill="#EEF1FF"/>
<path d="M322.68 323.511C322.68 323.511 286.502 251.182 384.63 203.176C384.63 203.176 392.152 306.244 322.68 323.511Z" fill="#6E7FDD"/>
<path d="M326.847 314.296C326.822 303.956 328.983 293.684 331.96 283.774C332.343 282.535 332.683 281.28 333.101 280.053L334.428 276.396L335.762 272.738L337.268 269.15C339.207 264.329 341.642 259.742 343.941 255.088L347.853 248.361C349.114 246.092 350.546 243.93 351.999 241.783C353.467 239.646 354.858 237.458 356.387 235.368C357.947 233.3 359.532 231.251 361.126 229.212L363.514 226.154L366.08 223.242L371.248 217.465C372.094 216.491 373.037 215.603 373.961 214.701L376.742 212.006C378.6 210.216 380.476 208.448 382.363 206.7C380.743 208.712 379.112 210.704 377.463 212.674L374.983 215.619C374.155 216.597 373.309 217.56 372.562 218.606L367.885 224.704L365.529 227.73L363.335 230.876C361.882 232.979 360.42 235.072 358.933 237.145C357.494 239.251 356.195 241.452 354.82 243.599C351.966 247.831 349.62 252.365 347.059 256.768C342.276 265.764 338.06 275.055 334.574 284.64C331.158 294.242 328.288 304.094 326.847 314.296Z" fill="#B3C9F9"/>
<path opacity="0.1" d="M380.958 202.464C379.583 227.333 371.061 293.444 319.6 308.416C321.456 315.921 323.709 320.425 323.709 320.425C393.181 303.158 385.659 200.09 385.659 200.09C384.055 200.874 382.491 201.666 380.958 202.464Z" fill="#0046A0"/>
<path d="M313.827 346.791C313.827 346.791 318.975 324.767 340.508 298.077C364.101 268.836 394.865 258.315 407.637 272.37C420.033 286.011 409.502 304.859 377.57 314.489C345.639 324.12 327.586 328.269 313.827 346.791Z" fill="#FFCF74"/>
<path d="M397.526 280.027C390.22 282.917 383.143 286.269 376.192 289.818C369.263 293.409 362.498 297.299 356.043 301.644C349.567 305.952 343.403 310.721 337.685 315.99C331.988 321.282 326.767 327.101 322.255 333.544C324.075 330.059 326.224 326.74 328.55 323.543C330.951 320.408 333.497 317.362 336.295 314.559C341.836 308.894 348.065 303.935 354.623 299.519C357.928 297.347 361.296 295.274 364.747 293.35C368.217 291.464 371.726 289.65 375.323 288.03C382.492 284.749 389.905 281.98 397.526 280.027Z" fill="#F9AB43"/>
<path opacity="0.1" d="M407.637 272.37C406.945 271.608 406.19 270.932 405.396 270.314C395.038 295.684 364.773 314.059 329.022 314.096C317.049 333.034 313.827 346.791 313.827 346.791C327.586 328.269 345.639 324.12 377.57 314.489C409.502 304.858 420.034 286.011 407.637 272.37Z" fill="#0046A0"/>
<path d="M128.506 334.421C128.506 334.421 54.1871 366.312 11.9961 265.546C11.9961 265.546 115.328 264.059 128.506 334.421Z" fill="#6E7FDD"/>
<path d="M122.571 330.93C112.248 330.35 102.12 327.594 92.4 324.043C91.1861 323.589 89.953 323.176 88.7521 322.687L85.1791 321.148L81.6061 319.602L78.1121 317.889C73.4121 315.671 68.9751 312.973 64.4641 310.405L57.9771 306.107C55.786 304.716 53.7111 303.16 51.6521 301.584C49.6051 299.994 47.5011 298.477 45.5051 296.828C43.5321 295.15 41.5791 293.448 39.6371 291.738L36.7241 289.176L33.9671 286.444L28.5021 280.948C27.5791 280.046 26.7481 279.054 25.9011 278.078L23.3731 275.144C21.6941 273.184 20.0401 271.208 18.4041 269.222C20.3181 270.957 22.2121 272.702 24.0811 274.463L26.8761 277.11C27.8041 277.994 28.7151 278.894 29.7171 279.701L35.5321 284.726L38.4151 287.255L41.4271 289.629C43.4411 291.203 45.4451 292.784 47.4291 294.39C49.4481 295.95 51.569 297.375 53.6311 298.873C57.689 301.969 62.0781 304.576 66.3241 307.39C75.0251 312.69 84.0541 317.442 93.4191 321.482C102.804 325.454 112.472 328.896 122.571 330.93Z" fill="#B3C9F9"/>
<path opacity="0.1" d="M14.0921 270.378C38.8391 273.203 104.339 285.573 116.278 337.822C123.878 336.407 128.507 334.422 128.507 334.422C115.328 264.06 11.9971 265.547 11.9971 265.547C12.6861 267.194 13.3851 268.801 14.0921 270.378Z" fill="#0046A0"/>
<path d="M97.9421 307.271C97.9421 307.271 97.5801 284.656 82.1941 254.008C65.3361 220.43 37.5011 203.627 22.0401 214.654C7.03312 225.358 13.3311 246.009 42.4951 262.19C71.6601 278.372 88.4221 286.254 97.9421 307.271Z" fill="#FFCF74"/>
<path d="M30.2981 224.282C36.8251 228.655 43.0311 233.432 49.0711 238.373C55.0811 243.351 60.8681 248.587 66.2551 254.201C71.6711 259.784 76.6841 265.752 81.1541 272.113C85.6001 278.492 89.4691 285.286 92.5131 292.539C91.4731 288.747 90.0771 285.048 88.4811 281.431C86.7991 277.859 84.9571 274.342 82.8171 271.01C78.6031 264.3 73.5671 258.133 68.0941 252.427C65.3241 249.604 62.4721 246.864 59.5081 244.252C56.5161 241.673 53.4721 239.157 50.3001 236.811C43.9891 232.084 37.3321 227.806 30.2981 224.282Z" fill="#F9AB43"/>
<path opacity="0.1" d="M22.0402 214.655C22.8782 214.057 23.7592 213.557 24.6662 213.121C29.4102 240.11 55.0922 264.483 90.0232 272.098C97.7092 293.144 97.9422 307.271 97.9422 307.271C88.4222 286.254 71.6592 278.371 42.4952 262.191C13.3312 246.01 7.03416 225.359 22.0402 214.655Z" fill="#0046A0"/>
<path d="M303.796 329.166C302.987 334.516 297.611 338.894 291.849 338.894H121.355C115.593 338.894 110.158 334.524 109.277 329.184L81.0478 157.987C80.1668 152.647 84.1618 148.277 89.9238 148.277H320.66C326.422 148.277 330.475 152.655 329.667 158.005L303.796 329.166Z" fill="#F9AB43"/>
<path d="M261.014 91.072H117.45V293.319H293.011V123.538L261.014 91.072Z" fill="#C2CEF2"/>
<path d="M261.014 91.072L293.246 123.303H261.014V91.072Z" fill="#7997F2"/>
<path d="M253.962 155.027L239.647 140.712L205.348 175.008L171.049 140.712L156.733 155.027L191.032 189.324L156.733 223.621L171.049 237.937L205.348 203.64L239.647 237.937L253.962 223.621L219.664 189.324L253.962 155.027Z" fill="#AFC2E8"/>
<path d="M222.008 207.018C217.481 207.024 212.686 203.489 211.352 199.163L204.775 177.832C203.441 173.506 198.646 169.967 194.119 169.967H77.1689C72.6419 169.967 69.5859 173.614 70.3769 178.071L98.9239 338.934C99.7149 343.391 104.066 347.038 108.593 347.038H311.181C315.708 347.038 319.991 343.38 320.7 338.909L340.345 214.975C341.054 210.504 337.93 206.85 333.403 206.856L222.008 207.018Z" fill="#FFCF74"/>
<path d="M193.516 282.406C193.516 276.144 196.002 271.264 200.974 267.764L203.368 266.108C205.639 264.636 207.22 263.423 208.111 262.472C209 261.521 209.447 260.339 209.447 258.927C209.447 255.367 206.468 253.586 200.514 253.586C197.752 253.586 194.898 253.955 191.951 254.692C189.006 255.428 186.212 256.473 183.573 257.822V243.643C189.219 241.065 195.543 239.776 202.54 239.776C210.09 239.776 216.076 241.357 220.494 244.518C224.914 247.68 227.123 252.053 227.123 257.638C227.123 260.769 226.417 263.3 225.006 265.234C223.593 267.168 221.199 269.331 217.824 271.725C215.553 273.383 213.894 274.657 212.851 275.547C211.808 276.438 211.025 277.434 210.504 278.539C209.981 279.645 209.721 280.995 209.721 282.589V284.34H193.515V282.406H193.516ZM195.405 304.457C193.777 302.831 192.964 300.82 192.964 298.426C192.964 295.972 193.777 293.946 195.405 292.349C197.029 290.753 199.072 289.955 201.527 289.955C203.921 289.955 205.962 290.768 207.651 292.394C209.337 294.022 210.183 296.031 210.183 298.425C210.183 300.819 209.338 302.83 207.651 304.456C205.962 306.082 203.921 306.895 201.527 306.895C199.072 306.896 197.029 306.083 195.405 304.457Z" fill="white"/>
<path opacity="0.1" d="M333.402 206.855L320.733 206.873C321.012 209.79 321.161 212.734 321.161 215.704C321.161 282.139 250.057 335.995 162.347 335.995C138.851 335.995 116.55 332.127 96.4849 325.191L98.9239 338.933C99.7149 343.39 104.066 347.037 108.593 347.037H311.181C315.708 347.037 319.991 343.379 320.7 338.908L340.345 214.974C341.053 210.503 337.929 206.85 333.402 206.855Z" fill="#0046A0"/>
<g opacity="0.3">
<path d="M90.0329 193.841C90.6349 197.879 91.2369 201.917 91.8399 205.955C93.2729 215.564 94.7059 225.172 96.1389 234.781C97.8839 246.483 99.6289 258.184 101.374 269.885C102.872 279.931 104.37 289.976 105.868 300.022C106.366 303.36 106.863 306.697 107.361 310.035C107.595 311.602 107.728 313.228 108.068 314.777C108.083 314.843 108.088 314.912 108.098 314.979C108.303 316.354 110.039 317.112 111.262 316.775C112.735 316.37 113.264 314.99 113.058 313.611C112.456 309.573 111.854 305.535 111.251 301.497C109.818 291.888 108.385 282.28 106.952 272.671C105.207 260.97 103.462 249.268 101.717 237.567C100.219 227.521 98.7209 217.476 97.2229 207.43C96.7249 204.092 96.2279 200.755 95.7299 197.417C95.4959 195.85 95.3629 194.224 95.0229 192.675C95.0079 192.609 95.0029 192.54 94.9929 192.473C94.7879 191.098 93.0519 190.34 91.8289 190.677C90.3569 191.082 89.8269 192.462 90.0329 193.841Z" fill="white"/>
</g>
<path d="M372.356 104.779C356.548 104.779 343.733 117.594 343.733 133.402C343.733 140.467 346.298 146.93 350.54 151.922L349.344 166.66L363.02 160.46C365.947 161.47 369.086 162.026 372.356 162.026C388.164 162.026 400.979 149.211 400.979 133.403C400.979 117.595 388.165 104.779 372.356 104.779Z" fill="#EB725F"/>
<path d="M370.375 148.055C369.852 147.531 369.59 146.885 369.59 146.115C369.59 145.345 369.852 144.699 370.375 144.175C370.899 143.651 371.545 143.389 372.315 143.389C373.085 143.389 373.739 143.651 374.279 144.175C374.817 144.698 375.087 145.345 375.087 146.115C375.087 146.885 374.816 147.532 374.279 148.055C373.739 148.578 373.085 148.84 372.315 148.84C371.545 148.84 370.899 148.578 370.375 148.055ZM368.759 115.861H375.964L374.625 138.91H370.097L368.759 115.861Z" fill="#F2F2F2"/>
<path opacity="0.1" d="M356.676 148.569C353.569 148.569 350.538 148.296 347.612 147.781C348.467 149.249 349.447 150.635 350.541 151.922L349.345 166.66L363.021 160.46C365.948 161.47 369.087 162.026 372.357 162.026C388.165 162.026 400.98 149.211 400.98 133.403C400.98 129.572 400.221 125.919 398.856 122.579C393.124 137.655 376.411 148.569 356.676 148.569Z" fill="#0046A0"/>
<path d="M79.0959 97.036V69.895C79.0959 66.636 76.4289 63.969 73.1699 63.969H23.6999C20.4409 63.969 17.7739 66.636 17.7739 69.895V104.097C17.7739 107.356 20.4409 110.023 23.6999 110.023H67.9909H73.1689H93.3699L79.0959 97.036Z" fill="#F9AB43"/>
<path d="M40.165 83.184C40.165 85.788 38.652 87.898 36.787 87.898C34.921 87.898 33.408 85.787 33.408 83.184C33.408 80.58 34.921 78.47 36.787 78.47C38.652 78.47 40.165 80.581 40.165 83.184Z" fill="white"/>
<path d="M62.6249 83.184C62.6249 85.788 61.1119 87.898 59.2459 87.898C57.3799 87.898 55.8679 85.787 55.8679 83.184C55.8679 80.58 57.3809 78.47 59.2459 78.47C61.1129 78.47 62.6249 80.581 62.6249 83.184Z" fill="white"/>
<path d="M40.2739 96.366C41.4319 95.097 43.0439 94.1 44.6469 93.522C48.7049 92.059 52.6269 93.587 55.7179 96.366C56.5429 97.108 57.7699 95.889 56.9399 95.144C53.5139 92.064 49.0689 90.255 44.5119 91.744C42.5129 92.397 40.4829 93.576 39.0519 95.144C38.3029 95.964 39.5219 97.19 40.2739 96.366Z" fill="white"/>
<path opacity="0.1" d="M79.0959 97.036V69.895C79.0959 66.636 76.4289 63.969 73.1699 63.969H68.0989C68.9789 67.193 69.4519 70.535 69.4519 73.965C69.4519 88.382 61.2609 101.292 48.3389 110.024H67.9919H73.1699H93.3709L79.0959 97.036Z" fill="#0046A0"/>
<path d="M250.043 249.049C234.179 264.913 234.179 290.635 250.043 306.499C265.907 322.363 291.629 322.363 307.493 306.499C323.357 290.635 323.357 264.913 307.493 249.049C291.628 233.185 265.907 233.185 250.043 249.049ZM302.836 301.843C289.544 315.135 267.992 315.135 254.7 301.843C241.408 288.55 241.408 266.999 254.7 253.707C267.993 240.414 289.544 240.414 302.836 253.707C316.128 266.999 316.128 288.55 302.836 301.843Z" fill="#EB725F"/>
<path opacity="0.3" d="M278.768 311.811C297.566 311.811 312.805 296.572 312.805 277.774C312.805 258.976 297.566 243.737 278.768 243.737C259.97 243.737 244.731 258.976 244.731 277.774C244.731 296.572 259.97 311.811 278.768 311.811Z" fill="white"/>
<path d="M306.397 300.316L301.304 305.409L347.364 351.469L352.457 346.377L306.397 300.316Z" fill="#6E7FDD"/>
<path d="M306.396 300.321L301.303 305.413L318.267 322.376L323.359 317.284L306.396 300.321Z" fill="#EB725F"/>
<path d="M258.951 263.778C260.243 260.053 263.073 257.04 266.477 254.948C269.903 252.871 273.971 251.756 278.04 251.757C282.109 251.747 286.18 252.859 289.607 254.938C293.013 257.028 295.843 260.046 297.128 263.778C293.406 262.521 290.259 261.526 287.132 260.918C284.031 260.289 281.038 260.001 278.039 259.986C275.04 259.991 272.044 260.277 268.942 260.907C265.814 261.514 262.666 262.514 258.951 263.778Z" fill="white"/>
</g>
<defs>
<clipPath id="clip0_3114_835">
<rect width="412" height="360" fill="white"/>
</clipPath>
</defs>
</svg>
